<svg id="图层_2" data-name="图层 2" xmlns="http://www.w3.org/2000/svg" viewBox="0 0 154.82 156.13"><defs><style>.cls-1{fill:#0062b1;}.cls-2{fill:#fff;}.cls-3{fill:#0062b2;}.cls-4{fill:#0063b2;}.cls-5{fill:#0064b3;}.cls-6{fill:#0065b3;}.cls-7{fill:#0066b4;}.cls-8{fill:#acbfe3;}.cls-9{fill:#94afdb;}.cls-10{fill:#b5c5e6;}.cls-11{fill:#fefeff;}</style></defs><title>生物工程学院</title><path class="cls-1" d="M1828.05,264c0-43,34.63-78.15,77.56-78.07s77.53,35.4,77.26,78.59c-.28,42.86-35,77.87-78,77.54-42.43-.33-76.83-35.16-76.79-78.06" transform="translate(-1828.05 -185.9)"/><path class="cls-2" d="M1905.47,339.84c-41.4,0-75.3-33.77-75.25-76,0-42,33.75-75.78,75.25-75.77,41.7,0,75.5,34.15,75.22,76.39-.28,41.77-33.92,75.32-75.22,75.35" transform="translate(-1828.05 -185.9)"/><path class="cls-1" d="M1963.83,264c0,32.66-26.34,59-58.57,58.86a58.61,58.61,0,0,1-58.18-58.92c0-32.44,26-58.84,58.41-58.82s58.36,26.64,58.34,58.88" transform="translate(-1828.05 -185.9)"/><path class="cls-1" d="M1897.61,197.33c.07.09.19.08.28.12a2.29,2.29,0,0,1,1.64,2.16,2.52,2.52,0,0,1-1.39,2.48,4.84,4.84,0,0,1-1.43.44c-1.12.19-2.24.34-3.35.52-.32,0-.46,0-.52-.37-.27-2-.58-4-.88-6-.12-.82-.26-1.64-.37-2.47-.06-.42,0-.44.37-.51,1.1-.16,2.19-.34,3.29-.49a3.63,3.63,0,0,1,1.43.06,2.26,2.26,0,0,1,1.15,3.73c-.08.1-.22.16-.22.32" transform="translate(-1828.05 -185.9)"/><path class="cls-1" d="M1858.71,305.42a7,7,0,0,1,.53,1.15,8.13,8.13,0,0,0-1.79.73c.61.61,1.18,1.2,1.75,1.79.19.19.31.05.43-.07l1.34-1.36c.12-.12.2-.29.41-.35l.61.71-1.87,1.94,2.62,2.62a2.44,2.44,0,0,1-.55.61c-.65-.61-1.29-1.19-1.93-1.78-.26-.25-.46-.71-.81-.69s-.51.44-.76.68a3.65,3.65,0,0,0-.65.7c.64.73,1.36,1.41,2.06,2.07a.75.75,0,0,1,0,.15c-.54.6-.54.6-1.09,0l-1.33-1.37c-.15-.16-.28-.25-.48,0-.56.58-1.14,1.14-1.75,1.74,1,1.12,2.09,2.16,3.17,3.2a1.76,1.76,0,0,1-.52.58l-7.2-7.08a1.36,1.36,0,0,1,.11-.19c.5-.55.48-.53,1,0,.91.92,1.85,1.8,2.83,2.76.51-.54,1-1.12,1.61-1.66.24-.25.17-.38,0-.59-.61-.62-1.21-1.25-1.83-1.9a1.77,1.77,0,0,1,.51-.54c.57.53,1.13,1,1.68,1.58s.55.56,1.13,0c.23-.23.45-.47.69-.7s.16-.28,0-.44c-.6-.6-1.2-1.21-1.79-1.82a.4.4,0,0,0-.47-.09l-1.11.39a.38.38,0,0,1-.56-.26,6.71,6.71,0,0,0-.36-.67,12.58,12.58,0,0,0,2.32-.63,12.06,12.06,0,0,0,2.13-1.16" transform="translate(-1828.05 -185.9)"/><path class="cls-1" d="M1967.07,260.27c-.08-.58-.13-1-.2-1.35s.14-.4.3-.54c.68-.58,1.37-1.16,2-1.75a9.24,9.24,0,0,0,.87-.9,1.66,1.66,0,0,0,.37-1.41c-.07-.39-.1-.79-.17-1.18s-.08-.45-.54-.39l-3.1.42c-.52.07-.52.08-.58-.48a.53.53,0,0,1,0-.13c-.06-.57-.06-.57.53-.65l8.16-1.1c.46-.06.49-.07.54.38.21,1.47.39,3,.58,4.44,0,.13,0,.26,0,.39a2.38,2.38,0,0,1-1.91,2.49,2.41,2.41,0,0,1-2.85-1.42c-.09-.2-.17-.4-.28-.66-.83,1.67-2.42,2.51-3.76,3.84" transform="translate(-1828.05 -185.9)"/><path class="cls-1" d="M1934.17,201.08l-1.61,3.19c-.46.92-.94,1.83-1.38,2.77-.14.3-.29.4-.58.2s-.42-.23-.69-.38l4.18-8.32h.16c1,.5,1,.5,1.17,1.69.26,2.34.55,4.67.82,7a.69.69,0,0,0,.16.41l.43-.8,2.54-5.06c.25-.51.26-.51.76-.26a1.43,1.43,0,0,1,.54.35l-1.28,2.56-2.66,5.29c-.26.51-.19.52-.76.25a1,1,0,0,1-.72-.95c-.26-2.53-.59-5.06-.89-7.59a.42.42,0,0,0-.19-.36" transform="translate(-1828.05 -185.9)"/><path class="cls-1" d="M1958,227l5.07-3.86c.44-.34.45-.33.79.12l.2.27c.15.17.11.3-.06.43l-.89.68-5.89,4.5c-.43.32-.41.29-.77-.1a1.11,1.11,0,0,1-.21-1.3c.83-2.31,1.61-4.64,2.4-7,.05-.16.18-.31.09-.51-.23,0-.37.21-.54.34l-4.69,3.58c-.44.32-.44.32-.75-.08l-.12-.16c-.28-.4-.29-.4.1-.7l6.63-5.06c.43-.33.4-.3.75.07a1.15,1.15,0,0,1,.22,1.36c-.85,2.39-1.66,4.81-2.49,7.22-.06.17,0,.19.16.17" transform="translate(-1828.05 -185.9)"/><path class="cls-1" d="M1973.86,270.54l-2.94-.4c-1.23-.16-2.46-.34-3.69-.48-.36-.05-.44-.2-.38-.51a2.6,2.6,0,0,0,0-.26c.08-.48.1-.5.59-.43,2.66.35,5.32.68,8,1.06.9.13.73,0,.69.87a.82.82,0,0,1-.58.77c-2.21,1.09-4.42,2.2-6.62,3.3a1.62,1.62,0,0,0-.6.38l3.29.45,3.3.42c.46.07.47.08.44.54,0,.13,0,.26,0,.39,0,.29-.17.34-.45.3-.9-.14-1.81-.23-2.72-.35l-5.64-.76c-.49-.07-.47-.06-.46-.56a1.12,1.12,0,0,1,.72-1.11c2.19-1.05,4.35-2.15,6.52-3.23a1.27,1.27,0,0,0,.57-.39" transform="translate(-1828.05 -185.9)"/><path class="cls-1" d="M1963.43,285.31a5.59,5.59,0,0,1,1.22-3.54,4.17,4.17,0,0,1,4-1.53,5.87,5.87,0,0,1,2.65,1.05,4.16,4.16,0,0,1,1.75,4.61,5.25,5.25,0,0,1-1.08,2.3,3,3,0,0,1-2.55,1.1c-.28,0-.4-.1-.36-.39a3.46,3.46,0,0,0,0-.46c0-.24.11-.35.37-.34a2.38,2.38,0,0,0,2.36-1.82,3,3,0,0,0-.49-3.33,4.76,4.76,0,0,0-4.11-1.44,2.49,2.49,0,0,0-1.54.82,4.25,4.25,0,0,0-.94,4.11.42.42,0,0,0,.2.32l1.37.46c.22.06.23-.14.28-.27.21-.63.43-1.25.61-1.88.09-.34.24-.43.55-.28a2.43,2.43,0,0,0,.38.13c.17.05.25.12.19.33-.37,1.1-.72,2.21-1.07,3.32-.07.2-.2.21-.36.16l-2.8-.92a.56.56,0,0,1-.35-.44,6.59,6.59,0,0,1-.33-2.07" transform="translate(-1828.05 -185.9)"/><path class="cls-1" d="M1950.15,211.75l-.38-.12c-.64-.26-.64-.26-.5-1a2.12,2.12,0,0,0-.1-1.29,3.26,3.26,0,0,0-4.86-1.47,5.38,5.38,0,0,0-1.8,2.23,3,3,0,0,0,.41,3.21,4.32,4.32,0,0,0,3,1.61.55.55,0,0,0,.61-.26c.23-.37.73-.68.71-1.07s-.59-.57-.92-.85-.72-.56-1.06-.83c0-.08,0-.13,0-.16.55-.8.55-.8,1.32-.21l2.41,1.86-1.93,2.56a.54.54,0,0,1-.45.21,5.65,5.65,0,0,1-5.37-3.31,4,4,0,0,1-.12-2.9,5.78,5.78,0,0,1,3.13-3.54,3.65,3.65,0,0,1,2.56-.2,5.36,5.36,0,0,1,2.88,1.94,3.26,3.26,0,0,1,.37,3.57" transform="translate(-1828.05 -185.9)"/><path class="cls-1" d="M1917.66,197.46a5.7,5.7,0,0,1-.73,2.91,4,4,0,0,1-4,2.14,4.08,4.08,0,0,1-3.85-2.6,5.61,5.61,0,0,1,.56-5.35,4.42,4.42,0,0,1,8,2.18c0,.24,0,.48,0,.72" transform="translate(-1828.05 -185.9)"/><path class="cls-1" d="M1864.9,215.93a3.66,3.66,0,0,1-1.77-.56,5.76,5.76,0,0,1-2.81-4,4.5,4.5,0,0,1,3.51-5,3.89,3.89,0,0,1,2.91.43,5.68,5.68,0,0,1,2.93,4.22,4.56,4.56,0,0,1-4.77,4.9" transform="translate(-1828.05 -185.9)"/><path class="cls-1" d="M1844.67,241.92a5.61,5.61,0,0,1-3.63-1.8,4.3,4.3,0,0,1-.57-5.13,4.21,4.21,0,0,1,4.48-2.28,6.12,6.12,0,0,1,3.16,1.47,4.27,4.27,0,0,1,1.14,4.87,4.44,4.44,0,0,1-4.58,2.87" transform="translate(-1828.05 -185.9)"/><path class="cls-1" d="M1841.21,253.83a6.12,6.12,0,0,1-3.24-.94,4.26,4.26,0,0,1-1.86-4.63,4.21,4.21,0,0,1,3.7-3.48,5.75,5.75,0,0,1,4.1,1,4.26,4.26,0,0,1,1.59,4.79,4.19,4.19,0,0,1-3.78,3.21l-.51,0" transform="translate(-1828.05 -185.9)"/><path class="cls-1" d="M1875.19,322a13.38,13.38,0,0,0,3-2.43l.84.82a6.66,6.66,0,0,0-1.35,1,2.41,2.41,0,0,0,.62.38c1,.49,1.9,1,2.86,1.46.25.13.36.23.17.54-1.17,1.83-2.15,3.77-3.23,5.65-.65,1.13-.94,1.25-2.18.93l-.26-.07c-.63-.18-.63-.19-.57-.87,0-.15,0-.31,0-.47.36.17.7.36,1.06.51a.58.58,0,0,0,.85-.22,2.7,2.7,0,0,0,.22-.33q1.38-2.39,2.75-4.79c.08-.14.27-.27.11-.46a.31.31,0,0,0-.53,0c-.35.53-.68,1.07-1,1.6a7.55,7.55,0,0,1-5.31,3.38c-.62.1-.62.11-.86-.5,0-.12-.09-.24-.13-.34s.14-.12.14-.12a5.73,5.73,0,0,0,4.69-2.08,19.14,19.14,0,0,0,1.77-2.49c0-.21-.18-.22-.28-.29s-.4-.1-.57.14a9.11,9.11,0,0,1-2.89,2.64,5.38,5.38,0,0,1-1.27.56,3.84,3.84,0,0,0-.48-.85c.05-.18.18-.15.27-.17a6.64,6.64,0,0,0,3.52-2.5c.09-.12.3-.24.16-.44a.53.53,0,0,0-.7-.09c-.42.27-.84.55-1.25.84-.15.1-.27.11-.37-.07a2.65,2.65,0,0,0-.26-.39c-.22-.27,0-.32.19-.38s.24,0,.3-.15" transform="translate(-1828.05 -185.9)"/><path class="cls-1" d="M1966.39,235.87c-.07.06-.09.1-.13.12-.8.49-.8.49-1.22-.32l-1.73-3.4c-.24-.46-.24-.46-.66-.24l-2.31,1.2a1.15,1.15,0,0,0,.21.58c.7,1.37,1.4,2.73,2.09,4.1.25.48.24.49-.23.74s-.52.27-.77-.23c-.9-1.75-1.79-3.51-2.69-5.27-.3-.58-.23-.5.2-.73l7.44-3.86c.41-.21.43-.21.63.19.9,1.76,1.79,3.52,2.7,5.27.17.32.11.48-.2.6l-.12.06c-.48.25-.49.25-.72-.21s-.42-.82-.63-1.23c-.49-1-1-1.91-1.46-2.88-.15-.32-.3-.34-.59-.18-.57.32-1.16.62-1.75.9-.29.15-.36.28-.19.6.59,1.12,1.16,2.26,1.74,3.39l.39.8" transform="translate(-1828.05 -185.9)"/><path class="cls-1" d="M1929,197.64c-1.47-.45-2.94-.91-4.42-1.35-.88-.26-.71-.44-1,.56-.19.62-.37,1.25-.57,1.92l1.89.6,2.5.77c.54.16.53.17.36.73a.53.53,0,0,0,0,.12c0,.33-.22.36-.51.27-1.22-.4-2.46-.76-3.68-1.14-.86-.26-.86-.26-1.12.6l-.54,1.76c-.12.42-.11.43.36.57l4.38,1.34c.81.25.56.21.43.85-.08.33-.24.41-.57.3-1-.33-2-.63-3-.94s-1.88-.59-2.82-.86c-.29-.09-.36-.2-.26-.51q1.26-4.12,2.49-8.26c.09-.31.2-.35.5-.26,1.87.59,3.75,1.16,5.62,1.73.46.15.47.16.32.63a1.25,1.25,0,0,1-.25.57" transform="translate(-1828.05 -185.9)"/><path class="cls-1" d="M1970.13,246.32c0,.17,0,.27-.12.32l-.25.09c-.6.21-.61.21-.8-.4-.4-1.28-.79-2.56-1.2-3.84-.16-.53-.17-.53-.72-.36s-1.17.36-1.75.56c-.82.28-.73.1-.49.91.44,1.43.9,2.84,1.34,4.27,0,.17.24.42,0,.54a2,2,0,0,1-.85.29c-.16,0-.18-.21-.22-.36l-1.29-4.08c-.18-.59-.34-1.18-.55-1.76-.15-.4-.13-.46.3-.6l3.74-1.19,4.24-1.34c.49-.16.5-.15.64.3.59,1.86,1.17,3.73,1.75,5.59.14.44.13.45-.31.59l-.08,0c-.53.16-.53.16-.68-.31-.32-1-.62-2-.93-2.95-.16-.5-.33-1-.47-1.51-.08-.29-.23-.33-.48-.25-.64.21-1.28.43-1.93.62-.33.09-.4.21-.28.56.43,1.31.83,2.63,1.24,4,0,.13.08.25.1.33" transform="translate(-1828.05 -185.9)"/><path class="cls-1" d="M1842.84,284c0,.44.07.88.1,1.32a6.32,6.32,0,0,1,0,1.44,2.13,2.13,0,0,1-1.48,1.85,2.21,2.21,0,0,1-2.37-.49,4.45,4.45,0,0,1-1.28-4.22,2.5,2.5,0,0,1,1.4-1.73c.22-.11.37-.11.45.16a2.17,2.17,0,0,0,.17.42c.14.26.12.43-.16.59a1.73,1.73,0,0,0-.82,1.93,4,4,0,0,0,.56,1.53,1.57,1.57,0,0,0,.61.59,1.12,1.12,0,0,0,1.71-.93,10.14,10.14,0,0,0-.06-1.91,8.3,8.3,0,0,1,0-2.17,2.44,2.44,0,0,1,3.66-1.67,2,2,0,0,1,.58.42,4.88,4.88,0,0,1,1.3,4.55,2.8,2.8,0,0,1-1.64,1.94c-.21.11-.37.13-.45-.14a2.3,2.3,0,0,0-.18-.43c-.15-.26-.11-.42.16-.58a2.12,2.12,0,0,0,1-2.24,3.72,3.72,0,0,0-.61-1.79,2,2,0,0,0-.64-.65,1.28,1.28,0,0,0-2,.89,8.32,8.32,0,0,0,0,1.32" transform="translate(-1828.05 -185.9)"/><path class="cls-1" d="M1839.4,257.8l4.12.17c.55,0,.55,0,.54.6a1.33,1.33,0,0,0,0,.2c0,.34-.1.47-.45.45-1-.06-2-.08-2.94-.11-1.21,0-1-.19-1.07,1l-.12,3.36c0,.46,0,.47.47.49l3.4.12c.53,0,.53,0,.5.58,0,.73,0,.72-.73.7l-8-.32-.33,0c-.18,0-.25-.09-.27-.28-.1-.9,0-1,.87-.94s1.7.06,2.55.11c.33,0,.47-.07.48-.43,0-1.31.09-2.63.13-4,0-.47,0-.48-.45-.5l-2.87-.11c-.47,0-.48,0-.47-.49,0-.86-.12-.81.82-.77l3.85.14" transform="translate(-1828.05 -185.9)"/><path class="cls-1" d="M1839.55,276.24a5.73,5.73,0,0,0,2.64-.68,2.89,2.89,0,0,0,.52-4.6,2.76,2.76,0,0,0-1.48-.65c-.28,0-.36-.14-.34-.42.1-1.16.08-1,1-.73a3.72,3.72,0,0,1,2.77,3.53,3.83,3.83,0,0,1-2.31,4.18,6.21,6.21,0,0,1-4.13.54c-2.94-.66-3.73-4-3-5.82a3.65,3.65,0,0,1,1.62-1.76c.27-.14.4-.09.48.19a2,2,0,0,0,.16.43c.17.3.07.46-.21.62a2.31,2.31,0,0,0-1.2,2.56,2.76,2.76,0,0,0,2,2.47,5.42,5.42,0,0,0,1.36.14" transform="translate(-1828.05 -185.9)"/><path class="cls-3" d="M1889.15,334.54c0-.13,0-.19,0-.26.08-.64.08-.63.69-.53,1.29.21,2.58.39,3.87.61.33.06.41,0,.46-.35q.48-3.28,1-6.57c0-.29,0-.39-.3-.43-1.06-.15-2.11-.33-3.17-.47-.29,0-.44-.1-.38-.43.1-.51.12-.56.49-.49,2.68.48,5.37.86,8.06,1.26.16,0,.4-.06.42.2a1,1,0,0,1-.14.69c-.1.14-.28,0-.43,0-1-.17-2-.34-3-.49-.49-.07-.5-.06-.57.43-.24,1.54-.47,3.08-.7,4.62-.08.59-.18,1.17-.26,1.76s0,.48.41.55c1.29.2,2.58.39,3.88.57.59.08.66.17.5.74-.06.22-.17.25-.38.21-.9-.16-1.8-.3-2.71-.44l-7.49-1.14-.29-.06" transform="translate(-1828.05 -185.9)"/><path class="cls-1" d="M1875.87,200.14l-1,.57c-1,.53-2,1.07-3,1.59-.3.16-.36.31-.19.61.39.69.74,1.4,1.13,2.15l.82-.41,2.6-1.39c.46-.25.46-.24.72.24a.67.67,0,0,0,.06.12c.19.27.17.44-.16.6-.9.45-1.78.94-2.67,1.41a4,4,0,0,1-.46.24c-.35.13-.32.33-.17.61q.78,1.46,1.53,2.91c.24.46.24.47-.18.69-.82.43-.63.47-1-.29q-1.89-3.58-3.76-7.18c-.26-.49-.26-.5.23-.76l4.57-2.44c.52-.28.52-.27.81.28.07.13.13.27.21.45" transform="translate(-1828.05 -185.9)"/><path class="cls-3" d="M1937.49,323.45l-3.06,1.64c-.58.31-.57.32-.88-.3a.93.93,0,0,0,0-.13c.07-.19.26-.21.41-.28l4.75-2.5c.16-.08.33-.35.55-.05s.37.68.09.95a16.11,16.11,0,0,0-1.21,1.64.3.3,0,0,0,0,.41c.13.19.27.05.39,0l3.12-1.67c.14-.08.28-.29.45-.14a1.09,1.09,0,0,1,.34.63c0,.19-.18.22-.3.28l-2.79,1.46-.23.12c-.53.3-.55.21-.25.76q.3.56.57,1.11c.31.63.26.87-.26,1.32l-.2.16c-.85.66-.85.66-1.74,0,.2-.28.54-.35.81-.51.54-.32.57-.4.28-1-.14-.28-.29-.54-.43-.82s-.2-.24-.4-.12l-1.27.67-2.36,1.29c-.44.24-.44.24-.67-.2l-.18-.38,4.26-2.25c0-.1,0-.15,0-.17-.42-.44-.3-.84.07-1.24a4.17,4.17,0,0,0,.4-.6c0-.11-.11,0-.17,0" transform="translate(-1828.05 -185.9)"/><path class="cls-3" d="M1875.19,322c0,.15-.17.16-.3.15s-.08-.16-.15-.2c-.65-.46-.68-.46-1,.25l-.73,1.46a4,4,0,0,0,1.22.29c0,.19-.08.31-.12.46a.32.32,0,0,1-.43.27,1.2,1.2,0,0,1-.2,0c-1.08-.19-.81-.31-1.34.72-.41.78-.78,1.57-1.17,2.36-.19.39-.2.4-.56.21a1.27,1.27,0,0,1-.51-.34c.63-1,1.17-2.14,1.72-3.26A5.71,5.71,0,0,0,1870,324c-.48,0-.48,0-.46-.54s0-.59.58-.44l1.51.41a.45.45,0,0,0,.62-.29c.27-.57.56-1.14.86-1.7.13-.24.1-.37-.16-.51-.71-.4-.7-.41-1.21.19l-.67.76-.74-.66a11.19,11.19,0,0,0,2.32-2.81l.86.62c-.21.31-.56.48-.74.83,0,0,0,.12.09.15.74.45.75.45,1.12-.32.24-.49.5-1,.7-1.49.11-.26.21-.36.47-.19a5.93,5.93,0,0,0,.57.3c-.3.6-.6,1.17-.89,1.75-.09.18-.17.36-.27.53s0,.28.13.36l.24.11c.42.21.42.21.25.69,0,.09-.05.17.06.22" transform="translate(-1828.05 -185.9)"/><path class="cls-3" d="M1913.38,332.18c-.42.76-.65,1.56-1.06,2.35l-.88-.69a8.7,8.7,0,0,0,1.43-3.85,1.38,1.38,0,0,0-.83,0l-.75.14c0-.05-.08-.08-.09-.12-.21-.71-.2-.69.49-.83.38-.07.9.08,1.09-.28s-.06-.72-.12-1.09a3.48,3.48,0,0,0-.17-.8,2.77,2.77,0,0,0-.86.26c-.58.19-.58.2-.91-.35a.56.56,0,0,1,0-.12c0-.2.22-.18.36-.23a12.84,12.84,0,0,0,2.64-1.14.27.27,0,0,1,.43.09c.16.2.34.39.55.64-.35.12-.64.24-1,.32s-.36.23-.3.52c.1.5.18,1,.25,1.5,0,.28.14.38.43.3s.63-.13,1-.19c0,.09.07.15.09.21.12.63.12.62-.54.74a1.86,1.86,0,0,0-.73.18c.22,1.35.44,2.72.67,4.08.13.76.28,1.51.41,2.27.08.41.07.42-.36.5s-.48.09-.56-.36c-.16-1-.31-2-.46-3l-.18-1.1" transform="translate(-1828.05 -185.9)"/><path class="cls-3" d="M1949.24,308.94c.5.94,1,1.83,1.45,2.72a.72.72,0,0,0,.67.5,7.06,7.06,0,0,1,1.28.25,2.1,2.1,0,0,1,1.33,1,1.71,1.71,0,0,1-.29,2,.23.23,0,0,1-.34,0c-.2-.16-.42-.31-.63-.46a.39.39,0,0,1,.17-.27c.52-.45.36-.8-.1-1.19a2.62,2.62,0,0,0-1.71-.55,1,1,0,0,1-1-.73,15.55,15.55,0,0,0-.75-1.39,1.71,1.71,0,0,0-.37-.5l-.09,0c-.86.78-.86.78,0,1.6l5.6,5.45c.35.34.33.34,0,.72s-.36.19-.57,0c-2.17-2.19-4.39-4.34-6.63-6.46-.13-.13-.35-.23-.13-.47l2.16-2.25" transform="translate(-1828.05 -185.9)"/><path class="cls-3" d="M1916.77,333.37c-.26-.91-.26-.91.57-1l.77-.13c.48-.09.51-.1.4-.59-.21-1,.1-1-1-.79l-1.28.23-.07,0c-.12-.11-.09-.28-.14-.42s0-.38.3-.42c1.75-.22,3.48-.54,5.2-.87a.51.51,0,0,1,.17.36c.08.45.06.45-.41.52s-1,.18-1.55.24c-.3,0-.43.13-.36.45.24,1.29,0,1.11,1.2.91.19,0,.38-.08.57-.12.49-.09.73.16.63.65,0,.2-.21.19-.36.21-.45.07-.9.13-1.36.18-.27,0-.34.16-.31.44.12,1.29.11,1.29,1.37,1.05.45-.09.9-.15,1.34-.27s.39.15.44.39.07.45-.3.5c-2,.29-4,.57-5.92,1-.37.08-.39-.16-.42-.41s-.11-.47.28-.51c.7-.07,1.38-.2,2.07-.3.32,0,.45-.18.38-.52-.29-1.48,0-1.17-1.3-1a8.23,8.23,0,0,0-.86.21" transform="translate(-1828.05 -185.9)"/><path class="cls-3" d="M1855.58,227.46l-.16.26c-.91,1.42-1.84,2.83-2.74,4.25-.17.27-.3.31-.57.13-2.38-1.58-4.77-3.16-7.16-4.72-.28-.19-.29-.34-.11-.58a.1.1,0,0,0,0-.05c.49-.72.32-.72,1.06-.24l5.74,3.78c.52.35.49.39.84-.15.6-.94,1.21-1.88,1.82-2.82.39-.59.39-.59,1-.16.19.14.25.21.26.3" transform="translate(-1828.05 -185.9)"/><path class="cls-3" d="M1955.62,315.84c.79-2.24.57-3.12-1.12-4.49a13.86,13.86,0,0,0-1,1c-.19,0-.25-.16-.35-.24s-.2-.33,0-.52c1.32-1.31,2.61-2.66,3.86-4a.35.35,0,0,1,.12-.07,1.16,1.16,0,0,1,.52.51c-.36.43-.82.76-1.19,1.27.74.71,1.45,1.41,2.18,2.1a.44.44,0,0,0,.69,0c.58-.53.61-.73.13-1.38,0-.06-.13-.12-.11-.22l.05-.09c.33,0,.58-.47.9-.11a1.31,1.31,0,0,1,.26,1.57,4.73,4.73,0,0,1-.86,1,1,1,0,0,1-1.61,0l-2-1.92c-.1-.1-.21-.29-.37-.14s-.47.35-.53.64c0,.14.14.21.23.3a8.16,8.16,0,0,1,1.08,1.4,3.63,3.63,0,0,1,.16,3.18c-.06.18-.14.31-.37.29s-.43,0-.69,0" transform="translate(-1828.05 -185.9)"/><path class="cls-3" d="M1932.15,323.87c.17.33.28.6.43.84s.11.4-.15.51a3.84,3.84,0,0,0-.35.18.19.19,0,0,1-.31-.1,13.48,13.48,0,0,0-.76-1.46c-.11-.18,0-.28.13-.36l1.27-.68c1.21-.64,2.41-1.31,3.64-1.93a.9.9,0,0,0,.6-.94c0-.7,0-1.41,0-2.11,0-.3,0-.46.37-.43a4.49,4.49,0,0,1,.88.06,20.64,20.64,0,0,0-.33,2.55,11.14,11.14,0,0,0,1.55-.75l.46-.24a.23.23,0,0,1,.37.12c.22.45.46.9.7,1.34.12.2.07.32-.13.41a1.64,1.64,0,0,0-.29.16c-.21.13-.35.11-.47-.13s-.26-.5-.44-.83l-7.13,3.79" transform="translate(-1828.05 -185.9)"/><path class="cls-3" d="M1916.24,329.06c-.25.05-.3-.07-.32-.25a24.9,24.9,0,0,0-.47-2.85c0-.22,0-.32.23-.36l4.56-.77c.24,0,.36,0,.39.28a23.84,23.84,0,0,0,.45,2.79c.06.26,0,.36-.25.4l-1.61.28-2.76.45-.22,0" transform="translate(-1828.05 -185.9)"/><path class="cls-3" d="M1971.62,264.5h-4c-.57,0-.57,0-.58-.57s0-.66.62-.67l8-.13c.87,0,.68,0,.71.71,0,.5,0,.52-.48.52h-4.25Z" transform="translate(-1828.05 -185.9)"/><path class="cls-3" d="M1904.65,197.26c0,1.36.08,2.72.11,4.08,0,.56,0,.56-.51.57H1904c-.48,0-.49,0-.5-.45,0-2.81-.11-5.62-.16-8.43,0-.5,0-.5.49-.52h.26c.46,0,.47,0,.48.47l.12,4.28Z" transform="translate(-1828.05 -185.9)"/><path class="cls-3" d="M1949.72,220.76a.72.72,0,0,1-.18-.1c-.23-.23-.59-.42-.64-.72s.32-.43.51-.62l5.67-5.65c.37-.37.37-.37.75,0,.1.11.21.23.32.33a.24.24,0,0,1,0,.39l-.75.74-5.34,5.32c-.1.11-.22.21-.33.31" transform="translate(-1828.05 -185.9)"/><path class="cls-4" d="M1952.32,306.59c.73-.71,1.47-1.42,2.23-2.17l1.09,1.25c0-.08,0,0,0,0-.65.69-.49.68-1.11.07-.06-.06-.14-.11-.24-.19l-3.16,3.29a.58.58,0,0,0,.24.36c.48.42.5.38,0,.9-.06.06-.13.1-.25.2a11.81,11.81,0,0,0-1.16-1.19l2.11-2.27a.24.24,0,0,1,0-.08.41.41,0,0,1,.24-.17" transform="translate(-1828.05 -185.9)"/><path class="cls-4" d="M1952.67,310.51c-.06-.05-.12-.07-.16-.11-.43-.39-.43-.39,0-.8q1.39-1.43,2.79-2.88c.25,0,.36.28.56.47l-3.16,3.32" transform="translate(-1828.05 -185.9)"/><path class="cls-5" d="M1933.23,320c.43-1,.43-1,1.28-.55.24.11.46.24.7.36a.32.32,0,0,1,.15.52c-.13.2-.18.45-.4.6a15.84,15.84,0,0,0-1.73-.93" transform="translate(-1828.05 -185.9)"/><path class="cls-5" d="M1932.59,322.46a10.12,10.12,0,0,0-1.83-.66c0-.1,0-.15,0-.18.4-.88.1-.81,1.15-.54l.19.05c1,.29,1,.29.52,1.33" transform="translate(-1828.05 -185.9)"/><path class="cls-6" d="M1915.43,332.78c-.32-.4-.63-.83-1-1.21-.19-.21-.16-.34,0-.53.36-.38.38-.39.74,0,.22.24.41.51.63.74s.25.44,0,.65-.21.28-.4.33" transform="translate(-1828.05 -185.9)"/><path class="cls-7" d="M1952.06,306.84l-1.39-.25c0-.07-.05-.12,0-.15.14-.71.14-.71.82-.6l.75.12c.06.18,0,.32,0,.47s0,.3-.11.42Z" transform="translate(-1828.05 -185.9)"/><path class="cls-8" d="M1952.05,306.85a.47.47,0,0,1,.11-.42l.16.16a.39.39,0,0,1-.27.26" transform="translate(-1828.05 -185.9)"/><path class="cls-9" d="M1958,227c0,.11-.16.2-.23.14s0-.22.07-.31Z" transform="translate(-1828.05 -185.9)"/><path class="cls-10" d="M1937.49,323.45a.15.15,0,0,1,.2-.09c.08,0,0,.09,0,.12Z" transform="translate(-1828.05 -185.9)"/><path class="cls-2" d="M1911.86,244.73a34.14,34.14,0,0,1-11.93-2.46,14.24,14.24,0,0,0-10.47.11,4.22,4.22,0,0,0-1.54.84c-.51.49-.49.83.13,1.17a6.08,6.08,0,0,0,.91.39,27.68,27.68,0,0,1,8.08,4.51,21.48,21.48,0,0,0,10.82,4.63,3.66,3.66,0,0,1,1.25.36,1.07,1.07,0,0,1,.54,1.59,3.36,3.36,0,0,1-.68,1,8.65,8.65,0,0,1-3.58,2.23,20.48,20.48,0,0,1-11.86.06,7,7,0,0,0-1.92-.36,3.65,3.65,0,0,0-.66,0c-.39.07-.51.3-.37.67a2.58,2.58,0,0,0,.51.77,9.14,9.14,0,0,0,3.12,2.24c.93.43,1.91.74,2.88,1.08a32,32,0,0,1,4.29,1.76,18.52,18.52,0,0,1,8.06,8,43.78,43.78,0,0,1,4.48,14.06,25.21,25.21,0,0,1-2.1,14,41.47,41.47,0,0,1-3.23,5.88,4.4,4.4,0,0,1-1.52,1.42c-.67.36-1.12.18-1.38-.54a4.87,4.87,0,0,1-.24-1.69,16.81,16.81,0,0,0-.47-4.18,13.75,13.75,0,0,0-3.19-5.76,28.51,28.51,0,0,0-6.24-5.09,47.13,47.13,0,0,0-4.87-2.7,39.6,39.6,0,0,1-17.15-15.77,46,46,0,0,1-3.62-7,28,28,0,0,1-2-9.57c0-1.23,0-2.46.12-3.69a11,11,0,0,0-.34-4,5.26,5.26,0,0,0-3-3.48c-1.75-.8-3.43-1.74-5.16-2.57l0,0c-.94-.5-.93-.83-.1-1.52a6.52,6.52,0,0,1,5.37-1.24c1.38.19,2.74.54,4.11.79a3.59,3.59,0,0,0,3.66-1.37,6.62,6.62,0,0,0,.9-1.37,18,18,0,0,1,3.93-5.22,34,34,0,0,1,9.3-6.2,40.43,40.43,0,0,1,6-2.31,17.7,17.7,0,0,1,11.12.38,66.15,66.15,0,0,1,6.42,2.78,45,45,0,0,0,8.75,3.27,27.73,27.73,0,0,0,5.43.75l3.27.12a3.61,3.61,0,0,1,1.34.28,1.2,1.2,0,0,1,.73,1.45,3.78,3.78,0,0,1-.5,1.21,9.52,9.52,0,0,1-1.38,1.84c-1.36,1.43-2.71,2.87-4.19,4.17a16.86,16.86,0,0,1-9.3,4.15c-.94.12-1.87.12-2.6.17" transform="translate(-1828.05 -185.9)"/><path class="cls-2" d="M1919.2,294.7h-2.38c-.13,0-.33.06-.35-.17s.06-.34.32-.39c.83-.15,1-.32,1.1-1.13q.48-3,1-5.91c.13-.75,0-1-.75-1.13-.11,0-.22,0-.23-.17s0-.32.18-.39a.86.86,0,0,1,.32-.05c1.46,0,2.91-.24,4.37-.18a7.38,7.38,0,0,1,1.8.31,3,3,0,0,1,2.22,2.73,5.66,5.66,0,0,1-4.86,6.39c-1,.1-1.92.06-2.72.09" transform="translate(-1828.05 -185.9)"/><path class="cls-2" d="M1932.09,285.49c0,.27,0,.48-.36.5a1,1,0,0,0-.92.94c-.17,1-.34,2-.5,3a12.91,12.91,0,0,0-.28,2.15,1.66,1.66,0,0,0,1.66,1.82,2.77,2.77,0,0,0,3-1.82,13.12,13.12,0,0,0,.49-2.32c.15-.8.26-1.6.39-2.4a2.39,2.39,0,0,0,0-.53c0-.54-.18-.72-.72-.84-.15,0-.32,0-.3-.24s.12-.32.33-.32h2.69c.14,0,.26.05.24.23s0,.32-.23.32c-.91,0-1.16.62-1.27,1.39-.18,1.19-.39,2.38-.59,3.57a9,9,0,0,1-.21.9,4.18,4.18,0,0,1-5.83,2.65,2.33,2.33,0,0,1-1.36-2.6c.18-1.37.42-2.73.63-4.1,0-.3.11-.6.16-.91.08-.58-.07-.79-.66-.89-.14,0-.32,0-.31-.22s.15-.34.39-.34h2.68a2.28,2.28,0,0,1,.9.07" transform="translate(-1828.05 -185.9)"/><path class="cls-2" d="M1943.34,294.19c0,.35-.07.52-.44.52-1.35,0-2.69,0-4.05,0-.11-.36-.07-.53.34-.56.88-.07,1.11-.28,1.26-1.14.38-2.25.74-4.5,1.13-6.85-.71,0-1.37,0-2,0-.35,0-.56.31-.74.6a3.26,3.26,0,0,0-.36.91.29.29,0,0,1-.4.23c-.23-.06-.13-.25-.09-.38.16-.66.32-1.32.49-2,.13-.48.2-.52.61-.27a1.42,1.42,0,0,0,.75.16h5.56a1.38,1.38,0,0,0,.85-.26c.25-.16.42,0,.4.26-.06.72-.14,1.45-.2,2.17,0,.17-.05.3-.25.3s-.25-.18-.25-.36a4.87,4.87,0,0,0,0-.66.79.79,0,0,0-.9-.75l-1,0c-.64,0-.65,0-.75.6-.19,1.15-.37,2.3-.56,3.45-.15.91-.28,1.82-.44,2.73s0,1.14.91,1.23l.24,0" transform="translate(-1828.05 -185.9)"/><path class="cls-2" d="M1898.23,199.8a1.53,1.53,0,0,1-1.34,1.54c-.55.12-1.11.19-1.67.28h-.09c-.4,0-.85.32-1.09,0s-.18-.69-.24-1.06c-.08-.52-.15-1-.24-1.56,0-.28,0-.44.33-.48.77-.09,1.55-.24,2.32-.34a2.36,2.36,0,0,1,.65,0,1.51,1.51,0,0,1,1.37,1.57" transform="translate(-1828.05 -185.9)"/><path class="cls-2" d="M1895.69,194.35c.78,0,1.18.2,1.42.79a1.28,1.28,0,0,1-.74,1.82,16.73,16.73,0,0,1-2.81.51c-.17,0-.24-.09-.26-.23-.11-.73-.2-1.47-.31-2.21,0-.25.07-.36.31-.38.8-.08,1.58-.29,2.39-.3" transform="translate(-1828.05 -185.9)"/><path class="cls-2" d="M1974.79,255.52a2.21,2.21,0,0,1-.14.87,1.35,1.35,0,0,1-1.21.88,1.4,1.4,0,0,1-1.38-.7,3,3,0,0,1-.36-1.12c-.12-.85-.21-1.7-.35-2.54,0-.31.08-.4.33-.43l2.27-.29c.24,0,.42,0,.46.3.12,1,.26,2,.38,3" transform="translate(-1828.05 -185.9)"/><path class="cls-2" d="M1916.37,197.27a5.52,5.52,0,0,1-.52,2.49,3,3,0,0,1-3.4,1.6,3.05,3.05,0,0,1-2.43-2.67,6,6,0,0,1,.35-2.85,3.08,3.08,0,0,1,5.94.71c0,.28,0,.56.06.72" transform="translate(-1828.05 -185.9)"/><path class="cls-2" d="M1864.8,207.45a3.09,3.09,0,0,1,1.72.72,5.15,5.15,0,0,1,1.88,2.78,2.9,2.9,0,0,1-1.16,3.19,2.83,2.83,0,0,1-3.37.23,5,5,0,0,1-2.37-3.27,3.2,3.2,0,0,1,3.3-3.65" transform="translate(-1828.05 -185.9)"/><path class="cls-2" d="M1844.42,233.94a5.11,5.11,0,0,1,3,1.3,3.14,3.14,0,0,1-2.71,5.41,6,6,0,0,1-2.47-1.15,3,3,0,0,1-1-3.47,3.05,3.05,0,0,1,3.22-2.09" transform="translate(-1828.05 -185.9)"/><path class="cls-2" d="M1844.59,248.85c0,2.51-1.59,3.94-3.61,3.7a6.59,6.59,0,0,1-1.89-.49,3.14,3.14,0,0,1,1-6.05,5,5,0,0,1,3.16.84,2.77,2.77,0,0,1,1.36,2" transform="translate(-1828.05 -185.9)"/><path class="cls-11" d="M1919.4,325.81c.23,0,.31.09.33.3s.1.6.15.91c.08.53.09.54-.41.63-.79.15-1.59.26-2.38.41-.28.06-.4,0-.43-.31-.06-.46-.35-1-.14-1.34s.78-.23,1.2-.31l1.68-.29" transform="translate(-1828.05 -185.9)"/><path class="cls-1" d="M1921.89,285.85c1.82,0,2.77.83,3,2.53a5.73,5.73,0,0,1-1.22,4.38,4,4,0,0,1-3.44,1.39c-.52,0-.71-.35-.61-.94.13-.76.27-1.51.4-2.27.24-1.47.49-2.94.73-4.41.1-.58.1-.58.68-.65l.48,0" transform="translate(-1828.05 -185.9)"/></svg>