<?xml version="1.0" encoding="UTF-8"?>
<svg width="155px" height="39px" viewBox="0 0 155 39" version="1.1" xmlns="http://www.w3.org/2000/svg" xmlns:xlink="http://www.w3.org/1999/xlink">
    <!-- Generator: sketchtool 60 (101010) - https://sketch.com -->
    <title>4E16CAFE-BCCD-402B-8655-11A7B5231B3C</title>
    <desc>Created with sketchtool.</desc>
    <g id="Product-Page" stroke="none" stroke-width="1" fill="none" fill-rule="evenodd">
        <g id="Product-page-v2" transform="translate(-102.000000, -22.000000)">
            <g id="molecules/global-nav" transform="translate(1.000000, 0.000000)">
                <g id="logo/snapgene" transform="translate(93.000000, 20.000000)">
                    <path d="M22.0869726,6.02487047 L22.0869726,25.4053841 L22.0869726,25.4053841 C22.0869726,31.3686191 19.0492228,40.3134715 16.011473,40.3134715 C12.9737232,40.3134715 9.93597335,31.3686191 9.93597335,25.4053841 L9.93597335,6.02487047 L9.93597335,6.02487047 L22.0869726,6.02487047 Z M22.6058475,2.21502591 C23.1581323,2.21502591 23.6058475,2.66274116 23.6058475,3.21502591 L23.6058475,3.35797927 C26.8395575,3.35797927 28.542191,4.78157005 28.542191,7.54880829 L28.542191,7.54880829 L28.6813472,7.54880829 C29.2336319,7.54880829 29.6813472,7.99652354 29.6813472,8.54880829 L29.6813472,19.5022798 C29.6813472,20.0545645 29.2336319,20.5022798 28.6813472,20.5022798 L27.6435973,20.5022798 C27.0913126,20.5022798 26.6435973,20.0545645 26.6435973,19.5022798 L26.6435973,8.54880829 C26.6435973,7.99652354 27.0913126,7.54880829 27.6435973,7.54880829 L27.7827535,7.54880829 C27.7827535,5.23625378 26.4476372,4.11994819 23.6058475,4.11994819 L23.6058475,4.11994819 L23.6058475,4.26290155 C23.6058475,4.8151863 23.1581323,5.26290155 22.6058475,5.26290155 L9.41709845,5.26290155 C8.8648137,5.26290155 8.41709845,4.8151863 8.41709845,4.26290155 L8.41709845,3.21502591 C8.41709845,2.66274116 8.8648137,2.21502591 9.41709845,2.21502591 L22.6058475,2.21502591 Z M32.9974093,9.07274611 C34.1019788,9.07274611 34.9974093,9.96817661 34.9974093,11.0727461 L34.9974093,16.978342 C34.9974093,18.0829115 34.1019788,18.978342 32.9974093,18.978342 L30.4407846,18.978342 L30.4407846,9.07274611 L32.9974093,9.07274611 Z" id="Combined-Shape" fill="#14BDC8"></path>
                    <path d="M40.7564767,30.6743729 L42.7881083,28.1175726 C43.7835311,28.9862335 44.7422232,29.6213298 45.6642132,30.0228805 C46.5862033,30.4244313 47.5612135,30.6252037 48.5892732,30.6252037 C49.6499697,30.6252037 50.4985141,30.4285287 51.134932,30.0351728 C51.7713499,29.641817 52.0895541,29.1173504 52.0895541,28.4617573 C52.0895541,27.8717235 51.8733385,27.4128152 51.4409006,27.0850186 C51.0084628,26.7572221 50.2863841,26.5113784 49.2746429,26.3474801 L45.8722719,25.7574492 C44.4036152,25.5116018 43.2899006,24.99533 42.5310946,24.2086183 C41.7722887,23.4219066 41.3928914,22.4057525 41.3928914,21.1601256 C41.3928914,19.5539225 42.000743,18.2837299 43.2164643,17.3495098 C44.4321857,16.4152896 46.0762406,15.9481865 48.1486784,15.9481865 C49.3888774,15.9481865 50.6412963,16.1612511 51.9059729,16.5873866 C53.1706495,17.0135221 54.2762051,17.6035471 55.2226727,18.3574791 L53.3134286,21.0126179 C52.3995977,20.3078553 51.5020988,19.7874861 50.6209048,19.4514946 C49.7397108,19.1155032 48.8340527,18.94751 47.9039035,18.94751 C46.9574358,18.94751 46.1986413,19.123698 45.627497,19.4760793 C45.0563527,19.8284606 44.7707849,20.299661 44.7707849,20.8896948 C44.7707849,21.4141693 44.9584438,21.8239088 45.3337671,22.1189257 C45.7090905,22.4139426 46.3373398,22.6270072 47.2185338,22.7581258 L50.4495623,23.2989874 C52.1466767,23.5776145 53.423573,24.1225681 54.2802894,24.9338645 C55.1370058,25.745161 55.5653576,26.8145812 55.5653576,28.1421572 C55.5653576,29.8139196 54.9085515,31.1496705 53.5949197,32.14945 C52.2812879,33.1492295 50.5311649,33.6491117 48.3444983,33.6491117 C46.973752,33.6491117 45.6234241,33.3868784 44.2934738,32.8624039 C42.9635236,32.3379295 41.7845364,31.6085931 40.7564767,30.6743729 Z M57.4085125,33.4032655 L57.4085125,20.5946794 L60.7619285,20.5946794 L60.7619285,21.6026487 C61.2514807,21.1929031 61.7940596,20.881501 62.3896815,20.6684332 C62.9853034,20.4553655 63.6339503,20.3488332 64.3356419,20.3488332 C65.8042986,20.3488332 67.0118426,20.8241311 67.9583103,21.7747411 C68.9047779,22.7253511 69.3780046,23.9463749 69.3780046,25.4378492 L69.3780046,33.4032655 L66.0245886,33.4032655 L66.0245886,25.9295416 C66.0245886,25.12644 65.7838957,24.4790515 65.3025027,23.9873567 C64.8211097,23.4956619 64.1806218,23.2498182 63.3810198,23.2498182 C62.8261939,23.2498182 62.3244104,23.3604478 61.8756542,23.5817105 C61.426898,23.8029732 61.0556598,24.1184726 60.7619285,24.5282183 L60.7619285,33.4032655 L57.4085125,33.4032655 Z M75.8963599,33.6245271 C74.5256137,33.6245271 73.4078196,33.2598589 72.5429439,32.5305116 C71.6780683,31.8011643 71.245637,30.8546659 71.245637,29.6909882 C71.245637,28.4781409 71.7107047,27.5275452 72.6408539,26.8391725 C73.5710031,26.1507997 74.8519789,25.8066185 76.4838197,25.8066185 C77.0060087,25.8066185 77.5281899,25.8475924 78.050379,25.9295416 C78.572568,26.0114907 79.0865902,26.1344126 79.5924608,26.2983108 L79.5924608,25.38868 C79.5924608,24.6511377 79.3640065,24.093892 78.9070911,23.7169259 C78.4501757,23.3399599 77.781131,23.1514797 76.899937,23.1514797 C76.3614295,23.1514797 75.7780552,23.237525 75.1497965,23.4096182 C74.5215378,23.5817114 73.8076182,23.8480421 73.0080162,24.2086183 L71.7841418,21.7255718 C72.7795647,21.2666567 73.7464158,20.9224755 74.6847242,20.6930179 C75.6230327,20.4635603 76.5490884,20.3488332 77.4629192,20.3488332 C79.176352,20.3488332 80.5103619,20.7626701 81.4649887,21.5903564 C82.4196155,22.4180427 82.8969218,23.5858004 82.8969218,25.0936645 L82.8969218,33.4032655 L79.5924608,33.4032655 L79.5924608,32.5182193 C79.0539533,32.8951853 78.4868972,33.1738082 77.8912753,33.3540963 C77.2956534,33.5343844 76.6306883,33.6245271 75.8963599,33.6245271 Z M74.4521881,29.6172343 C74.4521881,30.1089291 74.6643242,30.4981817 75.0886028,30.7850037 C75.5128814,31.0718257 76.075858,31.2152345 76.7775495,31.2152345 C77.3323754,31.2152345 77.842318,31.1455788 78.3073926,31.0062653 C78.7724672,30.8669517 79.200819,30.6661793 79.5924608,30.4039421 L79.5924608,28.4863419 C79.1845006,28.3224436 78.7561488,28.2036191 78.3073926,28.1298649 C77.8586364,28.0561107 77.3894892,28.0192341 76.899937,28.0192341 C76.1329718,28.0192341 75.5332794,28.162643 75.1008416,28.449465 C74.6684037,28.7362869 74.4521881,29.1255395 74.4521881,29.6172343 Z M85.3764914,38.5414508 L85.3764914,20.5946794 L88.6809525,20.5946794 L88.6809525,21.651818 C89.1868231,21.2420723 89.7497997,20.9347676 90.3698992,20.7298948 C90.9899987,20.525022 91.6345661,20.4225871 92.3036208,20.4225871 C93.2011333,20.4225871 94.0455982,20.5946777 94.837041,20.9388641 C95.6284837,21.2830504 96.3179261,21.7501535 96.9053888,22.3401873 C97.4928515,22.9302211 97.9538396,23.6267783 98.2883669,24.4298799 C98.6228943,25.2329814 98.7901554,26.0934344 98.7901554,27.0112648 C98.7901554,27.9290951 98.6188147,28.7895482 98.2761282,29.5926497 C97.9334416,30.3957513 97.468374,31.0923085 96.8809113,31.6823423 C96.2934486,32.2723761 95.5958472,32.7353817 94.788086,33.0713732 C93.9803248,33.4073647 93.1195417,33.5753579 92.2057109,33.5753579 C91.5856114,33.5753579 90.9777598,33.4893126 90.382138,33.3172194 C89.7865161,33.1451262 89.2357781,32.8951851 88.7299074,32.5673885 L88.7299074,38.5414508 L85.3764914,38.5414508 Z M91.7651161,23.2989874 C91.161335,23.2989874 90.5983584,23.4014223 90.0761693,23.6062951 C89.5539803,23.811168 89.1052308,24.1102778 88.7299074,24.5036337 L88.7299074,29.5434805 C89.0889124,29.9040567 89.5335824,30.1908744 90.0639306,30.4039421 C90.5942788,30.6170099 91.161335,30.7235421 91.7651161,30.7235421 C92.8094942,30.7235421 93.690675,30.3670687 94.4086849,29.6541112 C95.1266948,28.9411538 95.4856944,28.0602137 95.4856944,27.0112648 C95.4856944,25.9623158 95.1226153,25.0813758 94.3964462,24.3684183 C93.670277,23.6554608 92.7931758,23.2989874 91.7651161,23.2989874 Z" id="Snap" fill="#E51916" fill-rule="nonzero"></path>
                    <path d="M119.082463,24.8328334 C119.082463,26.0927251 118.866718,27.2666976 118.435222,28.3547859 C118.003725,29.4428743 117.409409,30.3755074 116.652255,31.1527134 C115.895101,31.9299193 114.987343,32.5434938 113.928956,32.9934551 C112.870568,33.4434165 111.730783,33.6683938 110.509567,33.6683938 C109.239502,33.6683938 108.050869,33.439326 106.943633,32.9811835 C105.836397,32.5230411 104.879792,31.8971951 104.073789,31.1036269 C103.267786,30.3100588 102.628692,29.3733351 102.156489,28.2934279 C101.684285,27.2135206 101.448187,26.0518197 101.448187,24.8082902 C101.448187,23.5647606 101.680214,22.4030597 102.144276,21.3231524 C102.608339,20.2432452 103.243362,19.3065216 104.049364,18.5129534 C104.855367,17.7193852 105.811972,17.0935392 106.919209,16.6353968 C108.026445,16.1772543 109.206936,15.9481865 110.460719,15.9481865 C111.87733,15.9481865 113.212506,16.2345213 114.466288,16.8071993 C115.720071,17.3798774 116.754018,18.1652527 117.568163,19.1633488 L115.101318,21.4458686 C114.498851,20.7259304 113.802768,20.1737134 113.013048,19.789201 C112.223328,19.4046886 111.37256,19.2124352 110.460719,19.2124352 C109.695423,19.2124352 108.983057,19.3556026 108.323601,19.6419416 C107.664144,19.9282807 107.094251,20.3209683 106.613906,20.8200164 C106.133561,21.3190644 105.75906,21.9080959 105.490393,22.5871284 C105.221725,23.266161 105.087393,24.0065409 105.087393,24.8082902 C105.087393,25.6100395 105.225796,26.3545098 105.502605,27.0417235 C105.779414,27.7289372 106.162056,28.3220591 106.650542,28.8211072 C107.139029,29.3201552 107.721133,29.7128429 108.396873,29.9991819 C109.072613,30.2855209 109.79312,30.4286883 110.558415,30.4286883 C111.763349,30.4286883 112.801367,30.0932676 113.672502,29.4224161 C114.543636,28.7515647 115.085034,27.8925605 115.296711,26.8453777 L110.240901,26.8453777 L110.240901,23.7529316 L119.082463,23.7529316 L119.082463,24.8328334 Z M132.620801,31.8031088 C131.839222,32.4412358 131.037302,32.9075524 130.215017,33.2020725 C129.392731,33.4965927 128.476832,33.6438506 127.467293,33.6438506 C126.506603,33.6438506 125.606987,33.4720497 124.768419,33.1284429 C123.92985,32.784836 123.205272,32.3185194 122.594664,31.7294791 C121.984056,31.1404388 121.503718,30.440964 121.153636,29.6310335 C120.803554,28.8211031 120.628516,27.9498274 120.628516,27.0171803 C120.628516,26.1008953 120.795413,25.2378006 121.129212,24.4278702 C121.463011,23.6179398 121.922996,22.9143744 122.509179,22.317153 C123.095363,21.7199316 123.791446,21.2495245 124.597449,20.9059176 C125.403452,20.5623108 126.262361,20.39051 127.174203,20.39051 C128.069762,20.39051 128.904247,20.5664013 129.677684,20.9181893 C130.451121,21.2699772 131.118709,21.7485653 131.680469,22.3539678 C132.242228,22.9593704 132.68186,23.6833882 132.999376,24.5260431 C133.316892,25.368698 133.475648,26.2808786 133.475648,27.2626125 L133.475648,28.1461685 L123.999056,28.1461685 C124.227016,28.9479178 124.666648,29.5942187 125.317963,30.0850832 C125.969279,30.5759501 126.734567,30.8213799 127.613839,30.8213799 C128.167457,30.8213799 128.688501,30.731389 129.176988,30.5514044 C129.665474,30.3714199 130.080682,30.1178091 130.422622,29.7905645 L132.620801,31.8031088 Z M127.10093,23.1638942 C126.335635,23.1638942 125.676188,23.3970525 125.12257,23.8633761 C124.568951,24.3296996 124.186309,24.9555456 123.974632,25.7409326 L130.202804,25.7409326 C129.991127,24.98827 129.604414,24.3706051 129.042655,23.8879193 C128.480895,23.4052335 127.83366,23.1638942 127.10093,23.1638942 Z M135.461336,33.3984183 L135.461336,20.611399 L138.807452,20.611399 L138.807452,21.6176711 C139.295939,21.2086154 139.837337,20.8977376 140.431662,20.6850286 C141.025987,20.4723196 141.673222,20.3659667 142.373386,20.3659667 C143.838846,20.3659667 145.043761,20.8404643 145.988169,21.7894737 C146.932576,22.7384831 147.404773,23.957451 147.404773,25.446414 L147.404773,33.3984183 L144.058657,33.3984183 L144.058657,25.9372784 C144.058657,25.1355291 143.818488,24.4892307 143.338142,23.9983638 C142.857797,23.5074969 142.218704,23.2620671 141.420842,23.2620671 C140.867224,23.2620671 140.366533,23.3725105 139.918754,23.5934006 C139.470974,23.8142907 139.100544,24.1292589 138.807452,24.5383147 L138.807452,33.3984183 L135.461336,33.3984183 Z M161.285049,31.8031088 C160.503471,32.4412358 159.701551,32.9075524 158.879265,33.2020725 C158.056979,33.4965927 157.141081,33.6438506 156.131542,33.6438506 C155.170851,33.6438506 154.271235,33.4720497 153.432667,33.1284429 C152.594098,32.784836 151.869521,32.3185194 151.258913,31.7294791 C150.648304,31.1404388 150.167966,30.440964 149.817884,29.6310335 C149.467802,28.8211031 149.292764,27.9498274 149.292764,27.0171803 C149.292764,26.1008953 149.459661,25.2378006 149.79346,24.4278702 C150.127259,23.6179398 150.587244,22.9143744 151.173428,22.317153 C151.759612,21.7199316 152.455695,21.2495245 153.261697,20.9059176 C154.0677,20.5623108 154.92661,20.39051 155.838451,20.39051 C156.73401,20.39051 157.568495,20.5664013 158.341932,20.9181893 C159.115369,21.2699772 159.782958,21.7485653 160.344717,22.3539678 C160.906477,22.9593704 161.346108,23.6833882 161.663624,24.5260431 C161.981141,25.368698 162.139896,26.2808786 162.139896,27.2626125 L162.139896,28.1461685 L152.663304,28.1461685 C152.891265,28.9479178 153.330896,29.5942187 153.982212,30.0850832 C154.633527,30.5759501 155.398815,30.8213799 156.278087,30.8213799 C156.831705,30.8213799 157.35275,30.731389 157.841236,30.5514044 C158.329723,30.3714199 158.74493,30.1178091 159.086871,29.7905645 L161.285049,31.8031088 Z M155.765179,23.1638942 C154.999883,23.1638942 154.340436,23.3970525 153.786818,23.8633761 C153.2332,24.3296996 152.850558,24.9555456 152.63888,25.7409326 L158.867053,25.7409326 C158.655375,24.98827 158.268663,24.3706051 157.706903,23.8879193 C157.145143,23.4052335 156.497908,23.1638942 155.765179,23.1638942 Z" id="Gene" fill="#171B1C" fill-rule="nonzero"></path>
                </g>
            </g>
        </g>
    </g>
</svg>