<svg id="图层_1" data-name="图层 1" xmlns="http://www.w3.org/2000/svg" viewBox="0 0 1752.02 1752.04"><defs><style>.cls-1{fill:#0073bb;}</style></defs><title>附件3：校徽、校名标准字(1)</title><path class="cls-1" d="M1182.82,720.57l-8.67-14.49-37.64,24-13.69-23.42,33.83-21.17L1148.24,671l-34.14,21.47-11.21-18.94,36.66-23.06-8.4-14.19-50.25,31.45,50.43,85Zm86.3-108.6c3.13,3.15,6.24,5.65,10,7,3.73,1.55,9.46,2.25,16.36,2,7.87.06,13.2.09,15.08.72A8.82,8.82,0,0,1,1319,629a12.56,12.56,0,0,1-1,10.68c-1.94,3.15-5.1,5.64-9.84,7.19-9.46,2.77-16.67-1.37-21.94-13.05l-14.46,6.51c8.62,21.15,22.43,28.78,41,22.92,10.39-3.4,17.38-8.7,20.57-15.94a33,33,0,0,0,1.12-23.25c-1.88-5.66-4.37-10.4-7.18-13.58a25.1,25.1,0,0,0-11-7.33c-4.09-1.6-10.38-2.25-18.91-1.94-7.85.24-12.87-.11-15.7-1.39a9,9,0,0,1-5-5.72,9.64,9.64,0,0,1,1.3-7.55c1.91-2.51,4.73-4.36,8.83-5.59,4.12-1.54,7.6-1.52,10.43-.26s5.31,4.45,7.51,9.51l15.1-5.89c-3-9.17-7.77-15.48-14.37-18.66-6.56-3.49-14.09-3.86-22.94-.77a37.69,37.69,0,0,0-14.21,7.77,27.07,27.07,0,0,0-5.83,27.65A35.12,35.12,0,0,0,1269.12,612Zm-67.29,94.89,6-2.8,8.51-4-8.4-18-8.33-18.32-.64-1.55.64-.35,2.49-.91c2.56-1.25,4.43-1.85,6-2.47.66,0,1.3,0,1.57-.31a15.06,15.06,0,0,1,6,1.62c2.19,1.26,6.9,4.46,13.76,9.51l19.72,14.61,17-8.39-16.57-13.31c-6.9-5.4-11.92-8.92-15.06-10.48a32.63,32.63,0,0,0-11.27-3.83c5.63-4.09,8.89-9.06,10.12-15.07s.42-12.29-2.7-19.49c-2.8-5.39-5.88-9.8-10-12.68a20.18,20.18,0,0,0-11.93-4.49h-.3A73.92,73.92,0,0,0,1200,598c-2.49.9-5.64,2.49-9.08,4l-30.35,14.9,38.82,84.88Zm-20-82,11.4-5.24c2.53-1.55,5-2.5,6.64-3.43,2.82-.92,4.41-1.59,5.32-1.87a8.75,8.75,0,0,1,3.16.35,9.15,9.15,0,0,1,3.16,1.27c1.86.94,3.43,3.19,4.68,6a13.15,13.15,0,0,1,1.83,7.9,9.93,9.93,0,0,1-2.88,6,28.56,28.56,0,0,1-7,4.37,18.72,18.72,0,0,1-5,2.48l-3.45,1.54-7.26,3.73ZM2226,1298.08c-7.49-3.83-16.94-5.81-28.22-6.17h-.34c-15.72-.39-28.34,3-37.49,10.5-8.26,6.82-12.38,15.93-12.81,27.86-.4,11,3.34,20.49,11.16,27.46,9.1,7.92,21.63,12.41,37.67,12.84h.92c15.44.43,27.69-3,36.65-9.81,8.8-7.2,13.29-16.62,13.67-28.23,0-7.59-1.48-14.53-4.9-20.2S2233.25,1301.88,2226,1298.08Zm-4.09,50c-5.38,4.08-13.57,5.9-24.88,5.51-11.6-.39-19.8-2.62-25.43-7.06-5.33-4.46-7.82-10.1-7.8-15.8.09-6.62,3.21-11.93,8.95-16,5.38-4.07,13.54-5.94,24.58-5.85l.61,0c11.35.36,19.48,2.57,24.82,7a19.85,19.85,0,0,1-.85,32.08ZM919.73,975.64a25.06,25.06,0,0,0,16-2.07c5.07-2.5,9.47-7.5,14-14.67,4.14-6.95,6.06-13.54,5.45-19.84a25.3,25.3,0,0,0-7.12-15.78c-4.08-4.43-11.59-9.82-22.83-16.8l-43.31-27.67-8.19,14.13,45.38,28.92c8.13,5.08,13.49,8.91,15.37,11.43a12,12,0,0,1,3.39,7.91c.31,2.81-.67,5.91-2.58,9.1a16.29,16.29,0,0,1-8.52,7.48,16.92,16.92,0,0,1-11.06-1c-2.46-.92-6.85-3.79-13.73-7.94L857.15,920.2l-8.3,14.11,43.9,28C905,969.9,914.07,974.35,919.73,975.64Zm174.61-193L1055,687l-13.29,11,30.7,69.7-61.05-43.79-13.29,11.23,83,58.74ZM987.88,895.85l-48.49-41.5,68.79,16.15,10.46-12.85L944.19,794l-9.54,11.9,49.77,42.44-70.67-16.81L903.91,844l74.43,63.75Zm60.24-70.73-67.5-71.24-11.71,11.58,67.82,71.23Zm465.46-162.88h-.34c-2.87,0-5.66.06-8.49.11s-5.67-.11-8.5-.11h-.32c-17.94,0-35.55.64-53.53,2.22v43.72C1164.6,733.67,942.78,953,913.5,1229.55h110.1c28.05-216.47,201.4-387,418.8-411.53v7a93.46,93.46,0,0,1-58.06,83.24c-146.68,42.59-258.71,167.38-282.69,321.3h107c29.45-136.37,150.63-238.64,295.85-238.64,109.59,0,205.26,58.42,258.5,145.63.52.94,1.1,1.93,1.67,2.9,3,5,6,10.18,8.76,15.46,3.07,5.78,5.87,11.77,8.53,17.82.59,1.37,1.3,2.67,1.86,4a288.68,288.68,0,0,1,17,52.82h107c-24-153.92-136-278.71-282.74-321.3a93.53,93.53,0,0,1-58-83.24v-5.8c0-.43,0-.81,0-1.19,217.4,24.52,390.75,195.06,418.77,411.53H2096C2066.71,953,1844.86,733.67,1567.07,708.18V664.46C1549.14,662.88,1531.5,662.24,1513.58,662.24Zm473.66,190.31,11.35-11.86L1966.39,809l18.41-19.7,28.77,28.51,11.08-12.19-28.78-28.55,14.92-15.93,30.94,30.75,11.41-12.23-42.86-42.1-66.54,72.25Zm26.25,20c-2.25,10.36-.38,19.79,5.8,28,5,6.93,11.28,11.07,18.85,12.41,7.2,1.63,16-.21,26.12-4.88l-4.64-16.36c-6.59,3.38-11.93,4.62-16.66,4.24a14.58,14.58,0,0,1-10.35-6c-3.45-4.78-4.36-10.15-2.4-16.41,1.88-6,7.62-12.84,17.38-20.63,9.21-7.18,17.1-10.91,23.37-11.19a16.61,16.61,0,0,1,14.79,7,16,16,0,0,1,3,11.35,22.69,22.69,0,0,1-5.69,12.54l13.13,9.84c5.72-6.87,8.91-13.46,9.56-19.46,1.32-8.77-.81-16.67-6.17-23.95-6.83-9.17-15.29-13.61-25.35-14-12.32-.09-24.61,4.9-37.86,15.19C2024.08,849.92,2016.43,860.92,2013.49,872.55Zm-632.56-229-20.75-97.37-15.77,3.36,20.76,97.37ZM875.25,1140.26,815,1121.62l69.64-12.77,4.48-16-92.6-28.57L792.23,1079l61.89,19.28L782.92,1111l-4.52,15.37L871.07,1155Zm1186.16-179,37-21.16,15.25,28.15-37,21.41,8.08,14.24L2169.07,955,2161,940.85l-33.17,19.32-15.2-28.47,33.16-19.3L2138,898.18l-84.35,48.87ZM1773.67,645.72l30.4,14.33,6.73-15.35-30.14-14.35,9.62-21.38,34.77,16.64,6.67-15.4-49.22-23.27L1742,677.27l14.73,7Zm136.88,134.59,50.17-64.51L1979.19,731l10.17-13.12-49.14-40.61-10.48,13.15,18.46,14.91-50.12,64.79ZM1414.21,554.69l9,82.48,15.77-1.82-9-82.46,23.3-2.66-1.76-16.72-62.4,7.15,1.81,16.68Zm88.58,76,16.06.42,1.21-41.83,30.56-57.08-18.2-.42-19.48,38.9-17.68-40.11-18.59-.42L1504,588.59ZM1683.26,659a35.91,35.91,0,0,0,13.82,1.93,30.74,30.74,0,0,0,15.46-5.85c9.78-6.54,17.07-18.15,21.58-33.83,4.81-16,4.94-29.25.61-40a34.46,34.46,0,0,0-22.91-20.91,32.5,32.5,0,0,0-14.1-1.68,24.19,24.19,0,0,0-6.63,1.26c-6.26,1.85-12.27,6.2-17.71,12.45s-9.81,15-13.07,26.65c-4.48,15.42-4.57,28.9.07,40.3C1664.71,649.1,1672.26,655.76,1683.26,659Zm-6.9-55.76c3.19-11.34,7.65-18.85,13-23.19a23.31,23.31,0,0,1,8.22-3.73,19,19,0,0,1,9.46.39,19.18,19.18,0,0,1,12.79,12.63c2.22,6.61,1.8,15.47-1.38,26.44-3.25,11.33-7.71,19.13-13.08,23.22a19.79,19.79,0,0,1-8.22,4,17.76,17.76,0,0,1-9.11-.36c-6-1.94-10.31-6-12.82-12.95C1672.79,623,1673.15,614.24,1676.36,603.23ZM2100.85,1044l59-23.57-47.22,54.16,5.89,15.44,80.41-32.22,9.81-4-5.62-14.19-4.08,1.58-56.14,22.57,48.45-55.39-5.82-14.81-89.89,36.22Zm97.8,56.94c-7.85-1.62-17-.77-28,1.68-15.1,4-26.53,10.55-33.81,20.25-6,8.77-8,18.84-5.22,30.18s8.7,19.54,18.09,24.34c10.65,5.44,23.57,6.12,39.33,2.44,3.15-.87,6.29-1.83,9.14-2.71,11-4.08,19.25-9.66,24.61-16.9,6.7-9.4,8.64-19.44,6.2-31.08a38.22,38.22,0,0,0-9.92-18.65c-5-4.75-11.31-7.93-19.49-9.55Zm13.95,32.48a19.31,19.31,0,0,1-4.2,17.61,26,26,0,0,1-10.12,7.49,45,45,0,0,1-12.63,4.32c-11,2.78-19.82,2.71-26.08-.18-6.28-2.57-10.35-7.31-11.56-13.62a19.18,19.18,0,0,1,4.18-17.6c4.46-5.62,12.37-9.68,23.06-12.41,9.45-2.14,17.3-2.43,23.31-.78a22.17,22.17,0,0,1,2.51.94A19.81,19.81,0,0,1,2212.6,1133.4Zm-66.93,81.4,4.08,57.28,16.35-1.46-2.86-40.93,34.6-2.6,44.69-3.5-1.15-16.42-43.44,3.55Zm-92.81,589.72c-1.25-.32-8.15,1.84-9.78,2.8-1.92.61-9.46,7.49-15.2,12.43s-11-2.55-12.54-4.44c-1.85-2.25-.59-6.63-.25-7.58a90.38,90.38,0,0,1-.25-10.38c.33-4.42-6-3.81-6-3.81l-2.5.32a16.33,16.33,0,0,0-3.81,2.19l-4.08,4s-2.9,4.05-2.9,5c0,.62-3.19,5.67-3.19,5.67l1.23,1c3.49,2.21,4.42-.32,7.26-.93,3.2-.6,2.52.34,3.78,1.66,1.24,1.55,1.2,7.19,1.2,8.19s-.65,3.72,1,5.63,2.76,1.93,6.87,2.25c4.08,0,3.45,2.55,3.45,2.55.63.59.29,1.87.29,1.87-2.2,2.23-9.22,11.61-10.79,13.79-1.53,1.89-6.3,8.15-6.33,9.73-.32,1.23-4.16,6.55-4.16,7.19a20.72,20.72,0,0,1-3.81,6.28c-1.86,1.58-1.56,2.23-1.56,2.23.92,1.19,2.18.3,5.34.57,3.12,0,7.9-5.28,9.79-8.37s6-8.15,7.95-10.95c1.9-3.15,7.28-8.79,8.88-11.27,1.57-2.21,2.82-2.21,2.82-2.21,1.62,0,3.19,2.21,3.19,2.21.92,1,4,8.81,4,8.81l2.52,7.6,0,3.76c-.32,1.25-2,7.85-2,8.83-.32.93-.32,2.16-1,4.37-1,2.51-2.55,2.21-3.14,2.87-.62.27-1.6-.36-2.26-.36a16.15,16.15,0,0,1-3.74-1.3l-1.88-1V1877a12,12,0,0,0,4.39,5.09c.59.62,6,.62,6,.62,1.87,0,5-1.53,8.54-6.85,3.8-5,3.17-8.47,3.23-12.57.3-3.73-.86-11.64-.86-11.64-.63-9.42-6.78-19.85-6.78-19.85l.29-1.59c.6-.32,1.27-1.25,5.35-5,4.47-4.07,5.12-2.48,6-3.41s4.07-3.17,5.39-4.4c1.53-1.25,3.78-6.28,3.78-9.7C2057,1804.22,2054.12,1804.52,2052.86,1804.52Zm-86.58-42.69a5.57,5.57,0,0,1-2.46-3.19l-2.85-3.16-2.82-.66s-4.42-.62-4.71,0c-.65.27-2.83-.64-3.44-.07s-5.06,1.87-5.06,4.37a24.66,24.66,0,0,0,.85,6.35,25.13,25.13,0,0,0,3.44,6.29c.62.91,4.07,5.69,5.64,5.69,1.88.32,3.45.93,4.09.36.3-.32,4.11.64,4.11.64l1.82-.32,2.88-2.53s3.51-1.16,3.81-.88c.62.66,5.65.38,5.65.38a9.83,9.83,0,0,0,1.25-2.21c0-1.25-1.16-7.55-.25-9.72a18.34,18.34,0,0,1,3.5-5.39l2.52-1.82a23.12,23.12,0,0,0,1.28-3.46c0-1,2.91-9.13,2-12.3,0,0,1.64-8.13.67-9.06l.39-2.85c0-.68-2.86-4.16-3.48-4.78a5.52,5.52,0,0,0-2.18-.93l-5-2.55-3.1,0s-4.11.27-5.09,1.2c-1.25.94-2.84,2.8-3.8,3.46-.62.62-1.9,3.78-1,5s3.74,8,3.74,9.2c-.33,1.25,2.15,11.34.86,17,0,0,.93,3.48.59,3.8C1969.43,1759.92,1969.43,1762.76,1966.28,1761.83Zm-579.39-232.39V1422.77H1370.2c-2.14,6.58-6.61,12.25-12.54,17-6.29,4.71-12.29,8.15-17.35,9.74v18.58a68,68,0,0,0,26.12-15.44v76.8Zm576.39,306.29c-.6-.61-1.51-3.51-1.87-4.1-.28-.32-1.83-3.16-1.83-3.16l-.95.91s-3.51,5.3-3.53,7.54c-.31,2.23-1,12.56,5.18,21.12,6,8.86,8.5,6.33,10.14,4.81,1.84-1.6,7.56-4,6.31-8.81,0,0-3.74-5.67-5.92-8.22S1963.93,1836.3,1963.28,1835.73ZM1455.81,1514.3h-.62a10.88,10.88,0,0,1-7.85-2.83c-2.19-1.89-3.45-5-3.78-8.78l-19.81,2.18c1.55,8.49,4.71,15.12,9.73,19.83,5.37,4.44,12,6.63,20.12,6.63,1,0,1.59-.37,2.21-.37,10.38-.29,19.2-4.69,26.17-12.54,6.89-8.84,10.68-22.63,10.68-42.19,0-18.9-3.51-32.69-10.41-40.91a32.54,32.54,0,0,0-26.44-12.55,33.9,33.9,0,0,0-24.54,9.72c-6.27,6.65-9.43,15.42-9.43,26.14,0,10.36,2.83,18.9,9.12,25.18a27.83,27.83,0,0,0,21.39,9.72,13.8,13.8,0,0,0,3.46-.29,24,24,0,0,0,15.74-8.47c-.63,11.93-2.53,20.1-5.64,23.86C1463.05,1512.43,1459.56,1514.3,1455.81,1514.3Zm10.1-40.28a12.54,12.54,0,0,1-10.1,4.44,12.93,12.93,0,0,1-10-4.71c-2.55-3.17-4.12-8.15-4.12-15.12,0-6.65,1.25-11.61,3.81-14.43a11.2,11.2,0,0,1,9.41-4.44h.94c3.45.27,6.58,1.89,9.47,5.35,3.13,3.46,4.36,8.79,4.36,15.37C1469.64,1466.21,1468.41,1470.93,1465.91,1474Zm534.31,298.08c1-.66,5.06-5.35,9.81-6.9s5.6,1,5.6,1l1.3,3.17.62,3.46-.37,2.5,0,2.85s-1.59,5-1.59,6.62l-.34,4.33s1.91-4,2.54-4.33c.62-.68,3.18-4.1,3.18-4.1s4.39-5.32,5-5.6a6.45,6.45,0,0,0,1.91-4.07c0-2.53-.27-6.65-.27-7.26a17.89,17.89,0,0,0-3.74-5.7,9.74,9.74,0,0,0-5-2.87c-14.48-2.27-27.78,15.26-35.06,24.93-7.63,9.43-17.31,35.45-17.56,37.07,0,1.55-1.61,6.85-1.61,6.85l-1,2.87c2.48,1.25,4.39-.61,7.6-5.33,3.14-4.37,1.31-5.32,11.16-23.54C1992,1779.56,1999.27,1773,2000.22,1772.1Zm-433.15-7v-78.37c157.6-21.33,286.3-134.67,329.78-284.09H1785.49c-43.66,113.33-153.33,193.87-282.09,193.87S1265,1516,1221.3,1402.65H1112.68c43.45,149.42,172.1,262.76,329.72,284.09v78.37c-200.71-22.66-363.73-169.89-409.68-362.46H921.05c51.91,269.93,289.81,474.18,574.88,474.18h.32c2.83,0,5.67,0,8.5-.1s5.66.1,8.49.1h.34c285.08,0,523-204.25,574.87-474.18H1976.73C1930.83,1595.22,1767.82,1742.45,1567.07,1765.11Zm587.68-243.46-39-12.82L2111,1524.5l38.61,12.81,44.7,46.27,1.25-4.1,4.53-14.14-4.44-4.12-26.56-26,26.78-3.91,15.13-2.44,5.8-18.14-20.84,3.6Zm-601.07-98.88-14.17,21.7-31.15,45.62V1508h43.42v21.43H1571V1508h12.92v-17.92H1571v-67.32Zm-1.9,67.32h-24.2l11.93-18.23,12.27-18Zm665.64-81.32a56.35,56.35,0,0,0-20.67-9.22,22.68,22.68,0,0,0-5.41-1.32c-10-2-19.4-2-27.59.11a40.26,40.26,0,0,0-19.64,11.23,41.76,41.76,0,0,0-9.55,19.76,57,57,0,0,0,.81,20.47c1.86,6.92,4.32,12.59,7.76,16.71l38,7.47,6.22-34.88-16-3.26-3.23,18.56-12.26-2.28a29.92,29.92,0,0,1-4.05-10.13,23,23,0,0,1-.56-10.34c1.32-6.94,4.79-11.63,10.75-14.77q10-5.09,27.45-1.69a52.21,52.21,0,0,1,7.21,1.64c6.9,2.25,11.92,5.44,15.33,9.52,4.39,5.07,5.87,11.36,4.92,18a18.56,18.56,0,0,1-6,11,21.47,21.47,0,0,1-12.62,4.33l.86,16.69c9.45,0,17-2.1,22.69-7.1,6-4.65,9.5-11.89,11.49-21.68,1.28-7.79.73-15-1.79-21.35C2228.73,1419.56,2224,1413.85,2217.42,1408.77ZM858.76,1254.69l2-17.28-21-9.27,3.68-32.4,22.35-4.55,2.33-17.92-59.88,12.5-40,8.56-2,17.28,41.7,19.47Zm-50.63-52.19,18.29-3.39-2.36,22-16-7-18.55-8.26Zm710.41,109.81v-83.94l115.84-.32,41.21-79.28L1588.13,1134l-69.59,87.6v-25.68l39.39-81.09-53.21-71.72-53.17,71.72,39.4,81.11v25.66l-69.61-87.6-87.47,14.81,41.23,79.28,115.85.32v83.92l-51.28-40.21H912v3.76c0,17.64.58,60,2.16,77H1440l58.5,49h17.61l54.28-49h527.52c1.54-17,3.46-59.38,3.46-77v-3.76h-531Zm113.81,202h-.64a11,11,0,0,1-7.89-2.83c-2.19-1.89-3.44-5-3.76-8.78l-19.83,2.18c1.6,8.49,4.75,15.12,10.09,19.83,5,4.44,11.65,6.63,19.85,6.63.92,0,1.54-.37,2.18-.37,10.68-.29,19.19-4.69,26.12-12.54,7.19-8.84,10.68-22.63,10.68-42.19,0-18.9-3.49-32.69-10.39-40.91a32.5,32.5,0,0,0-26.41-12.55,33.85,33.85,0,0,0-24.54,9.72c-6.3,6.65-9.47,15.42-9.47,26.14,0,10.36,2.85,18.9,9.11,25.18a28,28,0,0,0,21.42,9.72,14,14,0,0,0,3.48-.29c6.25-.62,11.33-3.46,15.74-8.47-.64,11.93-2.55,20.1-5.65,23.86C1639.56,1512.43,1636.45,1514.3,1632.35,1514.3Zm10.09-40.28a12.57,12.57,0,0,1-10.09,4.44,13,13,0,0,1-10.07-4.71c-2.54-3.17-4.09-8.15-4.09-15.12,0-6.65,1.23-11.61,3.78-14.43a11.15,11.15,0,0,1,9.41-4.44h1c3.49.27,6.56,1.89,9.45,5.35,3.12,3.46,4.71,8.79,4.71,15.37C1646.51,1466.21,1644.92,1470.93,1642.44,1474Zm-755,29.76a27.23,27.23,0,0,0-11.32-7.63c-4.07-1.59-9.73-2.28-16-2a85.4,85.4,0,0,0-8.54,1.28,60.27,60.27,0,0,0-13.22,3.64c-8.54,3.12-15.8,6.54-20.84,10.54-5.39,3.76-9.49,7.84-12,12.21A30.89,30.89,0,0,0,801,1535c-.31,4.08.87,9.75,3.36,17l9.6,28.39,37.21-13.31,54.23-19.81-10.21-29C893,1512,890.51,1506.92,887.41,1503.78Zm-36.18,45.69-27.14,9.91-2.43-7.2a59.92,59.92,0,0,1-3.39-13,14.19,14.19,0,0,1,1.93-8.79,22.55,22.55,0,0,1,7.59-7.81c3.48-2.5,8.87-5,15.45-7.44,3.18-.93,5.7-1.82,8.22-2.53a66,66,0,0,1,8.2-1.8c4.08-.25,7.57-.2,9.75.69a11.08,11.08,0,0,1,5.92,3.84c1.9,1.87,3.45,5.42,5.33,10.41l4,11.68Zm27.27-81.62-3-17-22.65-2.73L847,1416l20.23-11.17-3-17.67-46.78,26.45-42.58,23.64,3,17.34,39.3,5.26Zm-61.14-36,14.53-7.74,3.93,22.06-18.52-2-18.89-2.3Zm278.53,336.28c0-1.21-2.17-4.71-2.17-4.71l-5,0-5-1.3c-.62,0-2.22,1.87-2.22,1.87l-1,1.59s-6.3,4.67-6.94,5.31c-.62.29-9.52,7.15-9.52,7.15-3.14,3.12-9.42,6.9-9.42,6.9-2.55,2.18-7.9,4.32-10.41,3.68s-12.92-4.48-15.72-6.37-7.2-3.55-8.75-4.49a36.23,36.23,0,0,0-6.92-1,15.55,15.55,0,0,0-5.37-1.27c-2.49,0-2.49.61-2.49.61l-.07,1.57.66,2.87c-2,8.17,2.1,12.25,4.9,13.87,3.14,1.91,5.67,1.91,9.46,3.78,4.06,1.66,1.26,3.5-.67,5.39a54.8,54.8,0,0,1-6.65,4c-.93.62-7,2.8-7,2.8-.58.66-12.59,2.78-12.59,2.78l-4.43,1.23-4.37.89-8.49,2.77-3.48,1.21-2.22.34c-2.23,0-15.43-.43-16.67-.43-.93,0-1.27,0-4.7-2.55S943,1815,943,1815c2.8,7.87,7.82,9.13,7.82,9.13,1.58,1.59,5,1,5,1,10.68,3.55,25.47,4.85,34,3.37,8.49-1.85,21.11-5.88,21.11-5.88l2.23,0,0,1.25v1.28l-1,1.88v4.06l-3,15.75-2.55,9.06c-4.16,10.7-3.58,19.49-3.66,25.18-.33,5.65,11.84,19.63,15.6,21.18,3.42,2,4.4-.28,4.4-.28l1.32-3.43v-4.76l-1.18-6.31-.67-3.44-1.51-4.76-3-12.56s.34-13.87.34-15.42,2-13.22,2-13.22l1.57-3.12,1.36-3.78v-3.46l-1.27-2.55-2.5-2.53a2.79,2.79,0,0,1-2.52-1.84c.37-2.26,21.77-9.06,26.2-10.89s7.24.37,7.24.37,1.84,2.87,11.88,8.54c10.38,5.42,16.39.45,16.39.45l1.28-2.5-1.25-4.42-3.74-4.74-3.41-4.14-3.14-1.55-1-1-3.1-2.84c-2.55-1.6,3.12-3.76,3.12-3.76,8.49-1.5,25-15.55,27.21-18.72C1096.77,1772.89,1095.54,1769.73,1095.89,1768.16ZM859.6,1273.88l-96.93-3.14-.39,16.71,96.59,2.8Zm-1.79,37.43-16.39.88,2.25,40.55-79.32,4.58.85,16.64,95.69-6Zm1101.62,487a11.13,11.13,0,0,1-.89-3.76s-1.85-3.46-4.38-3.51a4.92,4.92,0,0,1-4.33-4.78,3.57,3.57,0,0,0-1.29-3.09s-1.59-2.89-3.1-2.89c0,0-1.57-3.17-1.91-3.76-.61-.71-2.79-2.55-3.73-2.62H1936l-1.58.34s-.92,0-1,3.42c-.31,3.12,1.82,13.91,2.77,15.16,0,0,4.63,8.86,9.65,12.61,0,0,4.74,2.58,5.63,1.94,0,0,2.85.64,5.7-2.14C1960.39,1802.65,1960.08,1800.44,1959.43,1798.26ZM1912,1942.71c-1.31-.36-7.63.23-7.63.23l-8.15.89s-9.45.27-11,1.18-8.49,1.23-8.49,1.23l-5.39-.32-5.33,0-6.24-.37c-1.62.34-8.52-1.61-8.52-1.61-2.18-1.64-15.11-5.13-16.34-5.47-1.57-.32-6,.59-8.49,1.48-2.21,1-.9-1.57-.9-1.57.62-2.46-1.93-5.67-2.2-7.22a70.87,70.87,0,0,1-1.5-9.17c-.6-6.28,7-11.27,8.86-12.5a25.6,25.6,0,0,0,6.64-5c1.57-1.57,1.63-6.6,1.94-8.47a7.61,7.61,0,0,0-.87-4.73c-.66-1.28-2.58-.34-2.58-.34l-4.07,1.82-3.48,1.59-6.34,4.37a21.57,21.57,0,0,0-5,4.4l-1.89-3.21-1.85-4.1-2.15-9.15a22.43,22.43,0,0,0-.88-6c-.58-2.8-5.91-11.65-7.8-14.52a8.33,8.33,0,0,0-4.36-3.78l-4.73-1.3-1.59-.36a25.48,25.48,0,0,0-3.13.68l-2.84,1.82-.32,1.59a17.75,17.75,0,0,1-.63,2.51c0,.64,1.56,2.82,1.56,2.82l3.13,2.55c4.38,4.44,11.2,20.81,11.2,20.81,1.25,2.25,2.12,7.31,2.73,8.22a10.81,10.81,0,0,1,.31,4.71c0,1,1.24,4.71,2.51,5.69s1.19,4.1,1.19,4.1c-.62,2.83-2.83,5.67-2.88,6a55.52,55.52,0,0,1-3.43,4.37s-1.93,1-2.25,2.21-3.16,3.1-3.16,3.1c-5.39,2.8-5.69,4.73-6,5.35a9.74,9.74,0,0,1-.34,4,4.49,4.49,0,0,0,1.55,3.77c.3.67,3.45,1,7.2,2,3.46.64,6.28-2.21,6.93-2.51,0,0,.31-.13.92-1a6.08,6.08,0,0,0,1.18-1.91,45.16,45.16,0,0,0,2.09-4.38v0a7.66,7.66,0,0,1,1.22-1.5c1.93-1.89,3.14,2.21,3.75,3.48.59.94.9,5,.56,6.26-.27,1-.27.34.64,9.47,1.17,9.13-1.43,20.47-1.76,24.84-.36,4.1-2.26,9.75-2.6,11s-2.89,6.26-2.89,6.92a20.72,20.72,0,0,1-2.52,2.16c-.59.3-1.55,2.19-1.26,2.85.67.61,2.18,0,2.82-.3.34-.36,1.62,0,1.62,0,.61-.68,2.8,0,5.35-1.84s5.35-6.26,5.35-6.26l1-1.28a10.47,10.47,0,0,1,1.23-3.14c1-1.87,3.57-9.06,3.57-9.06l.28-1.62.65-2.52,1.89-4.06v-1.54l-.24-2.87s.6-2.51.6-2.8c-.32-.34,0-2.21,0-2.21V1961l.32-1.57,0-1.89a43.81,43.81,0,0,0-1.21-5.35c-.36-.32-1.55-8.88-1.55-8.88s.65-2.14,6.31.71c5.31,2.87,28.19,14.7,34.74,18.19,6.32,3.48,16.09,3.89,21.75,4.19,5.66,0,12.59-5.54,13.56-5.88.94-.64,2.21-3.46,2.21-3.46s1-4,.36-4.71c-.31-.62,1.57-3.76,1.57-3.76s5.36-4.07,6-4.37C1913.52,1943.67,1912,1942.71,1912,1942.71Zm-641.9-60.12c-3.79-.35-2.19-2.55-2.19-2.55l1.6-2.85c0-.3,1-4.39,1-4.39l-.65-3.76s-.59-2.21-1.23-2.55a20.46,20.46,0,0,1-3.12-1.55,6,6,0,0,0-6,.57c0,.3-3.78,6.62-4.4,6.62-.34.3-.95,1.19-3.5,5.29-2.23,3.44-4.41,2.77-6,3.12-1.58.61-7.86-.39-8.47-.07-.62,0-8.81.25-8.81.25a55.24,55.24,0,0,0-6,.27c-1.2.32-5.37.62-6.62,2.19a7.72,7.72,0,0,0-1.29,4,13.16,13.16,0,0,0,.31,4.75c.56,2.21,2.77,3.81,3.44,3.81a15.16,15.16,0,0,0,5,0c.33,0,2.8.32,3.44,1.91.32,1.6-1.59,2.87-1.59,2.87l-1.55.25-2,1.6-3.12,2.45L1213,1909l-3.17,2.46-4.13,4.1s-4.12,3.12-4.74,4.37a58.26,58.26,0,0,0-1.6,5.67s.31,1.59.59,2.5,3.12,5.35,5.65,6.35A21.45,21.45,0,0,0,1210,1936c.62.59,2.53.3,2.53.3s6.28-2.44,9.45-2.44c3.14.32.61,2.8.61,2.8s-1.61,1.91-1.9,2.21c0,.66-3.23,5.94-3.23,5.94l-2.52,5.33a5.61,5.61,0,0,0-1.57.66l-1.6,1.27-6.89.55-2.87-.05h-4.1s-2.5.28-3.11.28c-.35.34-4.09.61-4.09.61-.33.34-4.13-.07-4.13-.07l-3.17-1.54s-.89-.94-1.82-.64a3.36,3.36,0,0,0-1.62,1.55l.64,1.29c1.91,2.21,6.59,4.44,6.59,4.44,1.56.91,3.72,1.57,4.37,1.92s7.53,0,8.84.36a8.4,8.4,0,0,1,3.77,1c1.53.66.91.93,1.25,1.55,0,.32-.37,1.89-.37,1.89l-1.25,2.5c0,.64-6.68,9.74-6.68,9.74-.65,1.55-3.47,3.47-1.9,5a3.09,3.09,0,0,1,.61,3.48c-2.21,1.59-7.51-3.16-10.38-7-2.78-4.13-19.37-16.17-20.64-16.83-.92-.64-.92-3.44-.92-3.44l.36-3.14-.93-3.16-1.84-3.76c-.67-.32-1.89-6.35-2.19-7a7.37,7.37,0,0,1,0-2.52l.64-2.51,1.3-2.82s2.21-3.78,4.12-5c1.56-1.23,6-4.69,6-4.69,4.39-4.35,7.88-2.78,10.06-3.42,2.26-.91,4.74-1.79,6.63-5.57,1.93-3.46-1.21-6.95-2.73-8.56-1.29-1.21-7.54-5.06-10.41-4.12s-3.75,5-3.75,5c-1,1.89-.37,5-.37,5,2.49,2.23,0,4.12-.06,4.37-.3.68-5.69,6.62-9.45,8.47-3.5,1.84-5.06,4-6.31,5s-3.87,5-3.87,5c-1,1.55-2.23,6.88-1.28,7.86.67.93.58,3.76.58,7.85-.05,3.76-4.12,2.83-4.12,2.83l-2.51-.66-.94-.64c-1.23.32-2.55-.32-4.71,1.2s-2.55,3.49-1.29,4.08,5,3.21,9.08,3.55c4.4.32,12.57,3.55,20.09,8.63a42.73,42.73,0,0,1,10.63,10.43c1.25.63,7.8,11.08,11.85,16.48a140.57,140.57,0,0,0,12.46,14.55c2.54,1.89,7.88,4.42,9.46,5.39,1.55.64,11,4.15,11,4.15,9.76,4.14,12.87,3.55,16.09-.21,2.84-3.48.35-6.28.35-6.28s-5.64-4.44-7.21-5.37c-1.91-.62-8.82-4.81-10-5.42-1-.69-12.53-8-12.53-8l-5.67-3.78-.94-1.28s.35-1.86,1.28-1.25,3.47-1.23,3.47-1.23,3.84-8.13,4.18-9.08c.29-.62,4.46-10.07,6.67-13.21s6-2.16,6-2.16c.94-.62,3.79,2.55,8.21.36,4.41-2.5,3.2-7.83,3.2-7.83a14.8,14.8,0,0,0-2.83-2.21,24.75,24.75,0,0,0-3.47-1.29,4.12,4.12,0,0,1-2.2,0c-.92-.61.34-1.89.34-1.89.62-1.25,5.73-9.7,5.73-9.7l3.14-4.05,3.53-3.48c1.86-1.82,3.45-2.41,9.42-3.37,6-1.23,4.43-2.8,4.43-3.46-.28-.57-5-3.17-5.63-3.44s.63-3.19,1.59-5c.64-1.57-.25-5.7-2.44-7.9-2.22-1.92-3.79-.05-3.79-.05a16.58,16.58,0,0,0-2.26,3.19c-.59.89-3.46,5-3.46,5-1.6,3.12-6.92,3.42-6.92,3.42l-4.12.61c-6.29,1.23-5.64-1.61-5.64-1.61,1.26-4.74,19.91-17.17,22.12-18.4,2.23-1,7.26-5.3,16.72-3.66,9.76,1.25,8.78,3.18,15.08,1.68,6.61-1.55,6.31-3.46,7.58-5.69,1.26-2.48-1.83-5.37-2.75-7.54C1277.61,1884.79,1270.1,1882.59,1270.1,1882.59Zm408.72,108.34a7.4,7.4,0,0,0-4.77-1.27c-.26.59-8.47,1.8-14.1,1.48-5.72-.05-13.59,1.45-13.91,2.07a30.65,30.65,0,0,1-9.13,1.23c-2.53-.66.32-2.85.32-2.85,4.46-2.46,9.85-9.35,9.85-9.35,10.4-13.19,7.65-19.15,7.65-20.13,0-1.21-3.08-5-9.06-7.6-6-2.24-11.29-.41-18,3-6.31,3.39-15.5,12.45-16.15,13.09a28.72,28.72,0,0,0-.33,4.71c-.31.64,1.88,2.55,2.18,2.89s2.83,1.91,2.83,1.91c3.13,2.53,9.13.37,9.73-.29.34-.93,1.6-1.87,2.55-3.14,1.27-1.26,0,0,5-3.44,4.81-3.1,4.47.68,4.47.68-.12,11-13.71,23.52-13.71,23.52-.68,1.87-3.83,1.87-3.83,1.87-13.52,2.41-22.37,6.78-29,11.74-6.61,4.72-6,7.22-6,7.22-.09,6.33,2.1,8.52,6.49,10.41s8.81-1.48,8.81-1.48c13-11.57,67.49-17.81,68.42-17.81,1.28-.32,5.35,0,7.26-.91,1.87-.64,3.19-4.69,5.35-7.19,2.22-2.85,2.55-4.72,2.55-5.67C1684.1,1994.73,1681,1992.82,1678.82,1990.93Zm-225-62.22a69,69,0,0,0-14.52,7.83c-5.33,3.69-5.06,8.77-5.06,8.77-.33,1.59,3.77,1.25,3.77,1.25s3.15-.59,3.75-.59c.62.34,3.79-.27,4.12-.94,0-.93,3.76-2.8,7-5s11-4,13.24-4.64a65.69,65.69,0,0,1,7.23-.28l5.33,1c1.29.31,2.83,4.39,2.83,4.39a24.48,24.48,0,0,1-2.93,10.68s1,0-4.44,8.47-14.59,14.11-16.46,15.32c-1.57,1.23-2.52-.34-3.13-.34-.32-.32.63-3.44.63-3.44l1.57-.93c0-1,3.17-2.21,3.51-3.76s3.47-4.44,4.43-4.08c1.28.32,2.86-1.54,2.86-1.54l1.53-2.53-.89-1.89-.59-3.76-2.22-1.25-.91-1.59-2.52-1-1.55-2.78c-5.31-6.35-6-3.21-6-3.21s-.69,3.75-.33,5c0,1.27-1.6,3.76-1.6,3.76-1.56.63-10.74,6.23-11.42,7.46-.91,1.62-2.52,3.49-1.6,5.35,1.3,1.62,5.33,3.83,5.33,3.83s1.57,2.8,1.88,3.14c.28.61-.61,3.78-.61,3.78l-1.29.93-2.53,2.17-1.93,1.57-2.51.29-2.54.32-2.19,1.23-1,.62-1.55-1-.3-1.82.37-2.87a9.9,9.9,0,0,0,1.59-2.8,40.16,40.16,0,0,1,1.26-5.67l.37-3.78,0-3.78c.64-2.82-3.09-5.35-5-5.35-1.59.29-5.69,1.8-8.83,8.4a64.23,64.23,0,0,0-5.81,17.28c-.34,2.21,0,3.16,1,3.46.93,0,2.18,2,2.18,2,0,1.52,2.85,4,4.05,5,1.26.59,3.14-.64,4.12-1.25.59-.34.59-1.23,2.49-1.55a1.35,1.35,0,0,1,1.89.64c0,3.73,3.78,3.8,4.73,3.8.9.27,3.15-2.53,4.35-2.53,1,.32,0,3.21,0,4.12-.32.94-1.26,3.12-1.26,3.12-.34,2.55-2.86,9.11-2.86,9.11-.34,1.28-4.44,4.1-4.44,4.1l-2.23.93a6.8,6.8,0,0,1-4.74,1.21c-3.09-.66-2.56.93-2.84.93-.31.28.64,3.78.64,3.78,0,.94,2.81,3.48,3.42,3.48.63.35,1.25,2.53,1.25,2.53.59,1.85-1,6.26-1.33,7.81a12.92,12.92,0,0,1-1.59,3.21c-.61.27-5.65.23-6,.57,0,.27-4.45.59-6.94.87h-1.28s-4.43.27-4.7.61-1.57-.36-2.51.59c-.7.91.28,2.83.28,2.83-.32.61,2.16,3.14,2.82,4.16a11.61,11.61,0,0,0,4,2.82c.34,0,.64.35,1.26.35a24.31,24.31,0,0,0,4.12.29c1.23,0,9.76-.25,17-.48,7.55-.59,17.3,2.64,18.22,3.92.92,1.53,1.88,3.44,6.31,3.78,4.65,0,8.81-3.1,11.7-5.26,2.8-1.89,2.18-3.48,2.18-3.48s.35-3.74-4.71-6.31-25.75-6.15-28.27-5.83c-2.21,0-1.54-5.71-1.54-5.71-.29-4,2.86-7.81,2.86-7.81,6.36-5.65,11.36-2.46,15.15-3,3.78-.34,5.66,0,7.26-2.87a5.31,5.31,0,0,0-1.82-6.89c-2.19-1.3-6.93-1.32-6.93-1.32l-2.25.31h-3.73l-2.53-1.29,2.26-9.11a43.71,43.71,0,0,1,2-6c7.24-5,26.22-19.65,31.62-28.14,5.44-8.1,6.69-14.07,8-20.06a14.15,14.15,0,0,0-2.75-10.67C1475.66,1919.13,1458.33,1926.89,1453.87,1928.71Zm-40.69,66.44c.62-2.81-1.56-1-1.56-1,0,.36-.63.66-1.28,1.27-5.67,6-30.39,32.56-32.61,35.09h-.33c-1.28,1.18-3.17,2.16-3.76,1.18-1.89-2.5,1-9.06,2.27-11.31.3-.3.94-1.21,1.9-2.17,3.79-5,11.39-14.41,13.29-17.85,3.24-5.67,3.87-11.9,3.58-13.79a18.37,18.37,0,0,0-.93-4.47c2.27-6.6,9.92-21.62,13.73-27a26.07,26.07,0,0,1,3.18-3.1c2.52-2.18,4.7-2.82,6.92-5.64,3.22-3.74,1.94-6.26.09-8.81-1.27-1.89-4.74-1.6-6.89-1.32-.67,0-.94.29-1.33.29-.31.32-9.45,2.19-9.45,2.19-1.27,1.25-9.4,1.8-10.07,2.11-.92.62-5,1.23-7.89,3.1a9.45,9.45,0,0,0-3.47,5l.59,1.25c.33,1.26,4.09,3.46,4.09,3.46,4.35,3.83,11.31,2,13.24.73a1.49,1.49,0,0,1,2.47.69s-9.29,25.75-12.09,23.83c-1.25-1-5-1.91-8.77-1.66a15.65,15.65,0,0,0-8.56,3.1c-4.44,4.37-6.67,11.29-6.09,15s6.57,8.24,11.29,7.33a6.31,6.31,0,0,0,3.16-.89,22.89,22.89,0,0,0,6.31-4.74l-6.33,11.34-14,23.45a23.74,23.74,0,0,0-1,3.17,5.38,5.38,0,0,0,.95,3.12,8.37,8.37,0,0,0,2.8,3.18,13.44,13.44,0,0,0,2.5,1c3.14.94,5.95,0,8.5-2.14.31-.34.36-.64.64-.93,2.86-2.78,5.39-6.9,7.94-10,4.43-5,18.4-22.56,24.09-30.37Zm-32.37-3.92a26.5,26.5,0,0,1-2.85,2.48c-2.86,2.21-5,3.42-7.57.27a10.38,10.38,0,0,1,4.48-7.83,24,24,0,0,1,3.14-1.57,9.13,9.13,0,0,1,6.31-1.23C1386.16,1984.35,1385.25,1988.06,1380.81,1991.23ZM1504.75,416.7c-483.83,0-876,392.2-876,876s392.19,876,876,876,876-392.18,876-876S1988.55,416.7,1504.75,416.7Zm.3,1688.18h-.3c-448.5,0-812.44-363.63-812.44-811.88,0-448.47,363.94-812.1,812.44-812.39h.3c447.88,0,811.83,363.62,811.83,812.39C2316.88,1741.25,1952.93,2104.88,1505.05,2104.88Z" transform="translate(-628.73 -416.7)"/></svg>